<svg width="25" height="25" viewBox="0 0 25 25" fill="none" xmlns="http://www.w3.org/2000/svg">
<path d="M22.3055 10.1084H21.5V10.0669H12.5V14.0669H18.1515C17.327 16.3954 15.1115 18.0669 12.5 18.0669C9.1865 18.0669 6.5 15.3804 6.5 12.0669C6.5 8.75339 9.1865 6.06689 12.5 6.06689C14.0295 6.06689 15.421 6.64389 16.4805 7.58639L19.309 4.75789C17.523 3.09339 15.134 2.06689 12.5 2.06689C6.9775 2.06689 2.5 6.54439 2.5 12.0669C2.5 17.5894 6.9775 22.0669 12.5 22.0669C18.0225 22.0669 22.5 17.5894 22.5 12.0669C22.5 11.3964 22.431 10.7419 22.3055 10.1084Z" fill="#FFC107"/>
<path d="M3.65302 7.41239L6.93851 9.82189C7.82752 7.62089 9.98052 6.06689 12.5 6.06689C14.0295 6.06689 15.421 6.64389 16.4805 7.58639L19.309 4.75789C17.523 3.09339 15.134 2.06689 12.5 2.06689C8.65902 2.06689 5.32802 4.23539 3.65302 7.41239Z" fill="#FF3D00"/>
<path d="M12.5 22.0669C15.083 22.0669 17.43 21.0784 19.2045 19.4709L16.1095 16.8519C15.0718 17.6411 13.8037 18.0679 12.5 18.0669C9.899 18.0669 7.6905 16.4084 6.8585 14.0939L3.5975 16.6064C5.2525 19.8449 8.6135 22.0669 12.5 22.0669Z" fill="#4CAF50"/>
<path d="M22.3055 10.1084H21.5V10.0669H12.5V14.0669H18.1515C17.7571 15.1751 17.0467 16.1435 16.108 16.8524L16.1095 16.8514L19.2045 19.4704C18.9855 19.6694 22.5 17.0669 22.5 12.0669C22.5 11.3964 22.431 10.7419 22.3055 10.1084Z" fill="#1976D2"/>
</svg>
