<svg width="44" height="44" viewBox="0 0 44 44" fill="none" xmlns="http://www.w3.org/2000/svg">
<path d="M14.8317 21.3215H6.23335C6.38002 12.7599 8.06669 11.3482 13.3284 8.23153C13.9334 7.86487 14.135 7.09487 13.7684 6.47153C13.42 5.86653 12.6317 5.66487 12.0267 6.03153C5.83002 9.6982 3.66669 11.9349 3.66669 22.5865V32.4682C3.66669 35.6032 6.21502 38.1332 9.33169 38.1332H14.8317C18.0584 38.1332 20.4967 35.6949 20.4967 32.4682V26.9682C20.4967 23.7599 18.0584 21.3215 14.8317 21.3215Z" fill="#F08000"/>
<path d="M34.6683 21.3215H26.07C26.2167 12.7599 27.9033 11.3482 33.165 8.23153C33.77 7.86487 33.9717 7.09487 33.605 6.47153C33.2383 5.86653 32.4683 5.66487 31.845 6.03153C25.6483 9.6982 23.485 11.9349 23.485 22.6049V32.4865C23.485 35.6215 26.0333 38.1515 29.15 38.1515H34.65C37.8766 38.1515 40.315 35.7132 40.315 32.4865V26.9865C40.3333 23.7599 37.895 21.3215 34.6683 21.3215Z" fill="#F08000"/>
</svg>
