<svg width="24" height="25" viewBox="0 0 24 25" fill="none" xmlns="http://www.w3.org/2000/svg">
<path d="M15.58 12.0669C15.58 14.0469 13.98 15.6469 12 15.6469C10.02 15.6469 8.41998 14.0469 8.41998 12.0669C8.41998 10.0869 10.02 8.48694 12 8.48694C13.98 8.48694 15.58 10.0869 15.58 12.0669Z" stroke="#6A6E87" stroke-width="1.5" stroke-linecap="round" stroke-linejoin="round"/>
<path d="M12 20.3369C15.53 20.3369 18.82 18.2569 21.11 14.6569C22.01 13.2469 22.01 10.8769 21.11 9.46686C18.82 5.86686 15.53 3.78687 12 3.78687C8.47003 3.78687 5.18003 5.86686 2.89003 9.46686C1.99003 10.8769 1.99003 13.2469 2.89003 14.6569C5.18003 18.2569 8.47003 20.3369 12 20.3369Z" stroke="#6A6E87" stroke-width="1.5" stroke-linecap="round" stroke-linejoin="round"/>
</svg>
