<svg width="182" height="67" viewBox="0 0 182 67" fill="none" xmlns="http://www.w3.org/2000/svg">
<path d="M65.2567 42.288C63.5607 42.288 62.1047 41.928 60.8887 41.208C59.6727 40.472 58.7367 39.456 58.0807 38.16C57.4247 36.848 57.0967 35.336 57.0967 33.624C57.0967 31.912 57.4247 30.4 58.0807 29.088C58.7367 27.776 59.6727 26.752 60.8887 26.016C62.1047 25.28 63.5607 24.912 65.2567 24.912C67.2727 24.912 68.9207 25.416 70.2007 26.424C71.4967 27.416 72.3047 28.816 72.6247 30.624H69.2407C69.0327 29.712 68.5847 29 67.8967 28.488C67.2247 27.96 66.3287 27.696 65.2087 27.696C63.6567 27.696 62.4407 28.224 61.5607 29.28C60.6807 30.336 60.2407 31.784 60.2407 33.624C60.2407 35.464 60.6807 36.912 61.5607 37.968C62.4407 39.008 63.6567 39.528 65.2087 39.528C66.3287 39.528 67.2247 39.288 67.8967 38.808C68.5847 38.312 69.0327 37.632 69.2407 36.768H72.6247C72.3047 38.496 71.4967 39.848 70.2007 40.824C68.9207 41.8 67.2727 42.288 65.2567 42.288ZM75.272 42V24.72H78.344V31.92C78.744 31.264 79.28 30.752 79.952 30.384C80.64 30 81.424 29.808 82.304 29.808C83.776 29.808 84.912 30.272 85.712 31.2C86.528 32.128 86.936 33.488 86.936 35.28V42H83.888V35.568C83.888 34.544 83.68 33.76 83.264 33.216C82.864 32.672 82.224 32.4 81.344 32.4C80.48 32.4 79.76 32.704 79.184 33.312C78.624 33.92 78.344 34.768 78.344 35.856V42H75.272ZM93.9776 42.288C92.9536 42.288 92.1136 42.128 91.4576 41.808C90.8016 41.472 90.3136 41.032 89.9936 40.488C89.6736 39.944 89.5136 39.344 89.5136 38.688C89.5136 37.584 89.9456 36.688 90.8096 36C91.6736 35.312 92.9696 34.968 94.6976 34.968H97.7216V34.68C97.7216 33.864 97.4896 33.264 97.0256 32.88C96.5616 32.496 95.9856 32.304 95.2976 32.304C94.6736 32.304 94.1296 32.456 93.6656 32.76C93.2016 33.048 92.9136 33.48 92.8016 34.056H89.8016C89.8816 33.192 90.1696 32.44 90.6656 31.8C91.1776 31.16 91.8336 30.672 92.6336 30.336C93.4336 29.984 94.3296 29.808 95.3216 29.808C97.0176 29.808 98.3536 30.232 99.3296 31.08C100.306 31.928 100.794 33.128 100.794 34.68V42H98.1776L97.8896 40.08C97.5376 40.72 97.0416 41.248 96.4016 41.664C95.7776 42.08 94.9696 42.288 93.9776 42.288ZM94.6736 39.888C95.5536 39.888 96.2336 39.6 96.7136 39.024C97.2096 38.448 97.5216 37.736 97.6496 36.888H95.0336C94.2176 36.888 93.6336 37.04 93.2816 37.344C92.9296 37.632 92.7536 37.992 92.7536 38.424C92.7536 38.888 92.9296 39.248 93.2816 39.504C93.6336 39.76 94.0976 39.888 94.6736 39.888ZM108.865 42C107.617 42 106.617 41.696 105.865 41.088C105.113 40.48 104.737 39.4 104.737 37.848V32.664H102.697V30.096H104.737L105.097 26.904H107.809V30.096H111.025V32.664H107.809V37.872C107.809 38.448 107.929 38.848 108.169 39.072C108.425 39.28 108.857 39.384 109.465 39.384H110.953V42H108.865ZM121.343 42.288C119.647 42.288 118.191 41.928 116.975 41.208C115.759 40.472 114.823 39.456 114.167 38.16C113.511 36.848 113.183 35.336 113.183 33.624C113.183 31.912 113.511 30.4 114.167 29.088C114.823 27.776 115.759 26.752 116.975 26.016C118.191 25.28 119.647 24.912 121.343 24.912C123.359 24.912 125.007 25.416 126.287 26.424C127.583 27.416 128.391 28.816 128.711 30.624H125.327C125.119 29.712 124.671 29 123.983 28.488C123.311 27.96 122.415 27.696 121.295 27.696C119.743 27.696 118.527 28.224 117.647 29.28C116.767 30.336 116.327 31.784 116.327 33.624C116.327 35.464 116.767 36.912 117.647 37.968C118.527 39.008 119.743 39.528 121.295 39.528C122.415 39.528 123.311 39.288 123.983 38.808C124.671 38.312 125.119 37.632 125.327 36.768H128.711C128.391 38.496 127.583 39.848 126.287 40.824C125.007 41.8 123.359 42.288 121.343 42.288ZM133.014 28.248C132.454 28.248 131.99 28.08 131.622 27.744C131.27 27.408 131.094 26.984 131.094 26.472C131.094 25.96 131.27 25.544 131.622 25.224C131.99 24.888 132.454 24.72 133.014 24.72C133.574 24.72 134.03 24.888 134.382 25.224C134.75 25.544 134.934 25.96 134.934 26.472C134.934 26.984 134.75 27.408 134.382 27.744C134.03 28.08 133.574 28.248 133.014 28.248ZM131.478 42V30.096H134.55V42H131.478ZM137.756 42V30.096H140.492L140.78 32.328C141.212 31.56 141.796 30.952 142.532 30.504C143.284 30.04 144.164 29.808 145.172 29.808V33.048H144.308C143.636 33.048 143.036 33.152 142.508 33.36C141.98 33.568 141.564 33.928 141.26 34.44C140.972 34.952 140.828 35.664 140.828 36.576V42H137.756ZM152.893 42.288C151.677 42.288 150.605 42.024 149.677 41.496C148.749 40.968 148.013 40.232 147.469 39.288C146.941 38.344 146.677 37.264 146.677 36.048C146.677 34.832 146.941 33.752 147.469 32.808C148.013 31.864 148.749 31.128 149.677 30.6C150.605 30.072 151.677 29.808 152.893 29.808C154.413 29.808 155.693 30.208 156.733 31.008C157.773 31.792 158.437 32.88 158.725 34.272H155.485C155.325 33.696 155.005 33.248 154.525 32.928C154.061 32.592 153.509 32.424 152.869 32.424C152.021 32.424 151.301 32.744 150.709 33.384C150.117 34.024 149.821 34.912 149.821 36.048C149.821 37.184 150.117 38.072 150.709 38.712C151.301 39.352 152.021 39.672 152.869 39.672C153.509 39.672 154.061 39.512 154.525 39.192C155.005 38.872 155.325 38.416 155.485 37.824H158.725C158.437 39.168 157.773 40.248 156.733 41.064C155.693 41.88 154.413 42.288 152.893 42.288ZM161.452 42V24.72H164.524V42H161.452ZM173.447 42.288C172.247 42.288 171.183 42.032 170.255 41.52C169.327 41.008 168.599 40.288 168.071 39.36C167.543 38.432 167.279 37.36 167.279 36.144C167.279 34.912 167.535 33.816 168.047 32.856C168.575 31.896 169.295 31.152 170.207 30.624C171.135 30.08 172.223 29.808 173.471 29.808C174.639 29.808 175.671 30.064 176.567 30.576C177.463 31.088 178.159 31.792 178.655 32.688C179.167 33.568 179.423 34.552 179.423 35.64C179.423 35.816 179.415 36 179.399 36.192C179.399 36.384 179.391 36.584 179.375 36.792H170.327C170.391 37.72 170.711 38.448 171.287 38.976C171.879 39.504 172.591 39.768 173.423 39.768C174.047 39.768 174.567 39.632 174.983 39.36C175.415 39.072 175.735 38.704 175.943 38.256H179.063C178.839 39.008 178.463 39.696 177.935 40.32C177.423 40.928 176.783 41.408 176.015 41.76C175.263 42.112 174.407 42.288 173.447 42.288ZM173.471 32.304C172.719 32.304 172.055 32.52 171.479 32.952C170.903 33.368 170.535 34.008 170.375 34.872H176.303C176.255 34.088 175.967 33.464 175.439 33C174.911 32.536 174.255 32.304 173.471 32.304Z" fill="#F08000"/>
<path d="M50.1717 10.1639C46.1621 7.33154 41.4784 5.60314 36.5901 5.15197C31.7019 4.7008 26.7809 5.54272 22.3207 7.59331C17.8604 9.64389 14.0177 12.8311 11.1778 16.8353C8.33787 20.8395 6.6006 25.5199 6.14017 30.4073C5.67974 35.2947 6.51234 40.2172 8.55448 44.6814C10.5966 49.1455 13.7765 52.9942 17.7753 55.8417C21.7741 58.6892 26.4513 60.4353 31.3378 60.905C36.2243 61.3747 41.1484 60.5514 45.6164 58.5177L43.2965 53.4209C39.7221 55.0478 35.7828 55.7064 31.8736 55.3307C27.9644 54.955 24.2226 53.5581 21.0236 51.2801C17.8246 49.0021 15.2806 45.9231 13.6469 42.3518C12.0132 38.7805 11.3471 34.8424 11.7155 30.9325C12.0838 27.0226 13.4736 23.2783 15.7456 20.0749C18.0175 16.8716 21.0917 14.3218 24.6599 12.6813C28.2281 11.0409 32.1648 10.3673 36.0754 10.7283C39.986 11.0892 43.733 12.4719 46.9407 14.7378L50.1717 10.1639Z" fill="#F08000"/>
<path d="M44.7576 17.8283C42.0918 15.9451 38.9778 14.796 35.7277 14.496C32.4777 14.196 29.2059 14.7558 26.2405 16.1192C23.275 17.4825 20.7201 19.6016 18.8319 22.2638C16.9438 24.9261 15.7887 28.038 15.4826 31.2874C15.1765 34.5369 15.73 37.8097 17.0878 40.7777C18.4455 43.7458 20.5597 46.3047 23.2184 48.1979C25.8771 50.0911 28.9868 51.252 32.2356 51.5643C35.4845 51.8766 38.7584 51.3292 41.729 49.9771L40.1865 46.5884C37.8101 47.6701 35.191 48.108 32.5919 47.8581C29.9928 47.6083 27.505 46.6796 25.3781 45.165C23.2512 43.6504 21.5598 41.6033 20.4736 39.2289C19.3874 36.8545 18.9445 34.2362 19.1894 31.6366C19.4343 29.0371 20.3584 26.5476 21.8689 24.4178C23.3794 22.288 25.4234 20.5927 27.7957 19.502C30.1681 18.4113 32.7855 17.9635 35.3855 18.2035C37.9856 18.4435 40.4768 19.3628 42.6095 20.8693L44.7576 17.8283Z" fill="#F08000"/>
<path d="M35.1868 23.0334C30.3068 23.0334 26.3568 26.7234 26.3568 31.2734C26.3568 31.5334 26.3668 31.7834 26.3968 32.0334C27.2868 31.4534 28.3568 31.1235 29.5168 31.1235C32.5568 31.1235 35.0168 33.4234 35.0168 36.2634C35.0168 37.4534 34.5768 38.5535 33.8368 39.4235C34.2768 39.4835 34.7268 39.5134 35.1868 39.5134L39.3768 42.0034C40.0868 42.4334 40.9768 41.8534 40.8768 41.0234L40.4868 37.8635C42.6268 36.3635 44.0168 33.9734 44.0168 31.2734C44.0168 28.2034 42.2168 25.5235 39.5368 24.1035" stroke="#F08000" stroke-width="1.5" stroke-linecap="round" stroke-linejoin="round"/>
<path d="M26.3968 32.0334C27.2868 31.4534 28.3568 31.1235 29.5168 31.1235C32.5568 31.1235 35.0168 33.4234 35.0168 36.2634C35.0168 37.4534 34.5768 38.5535 33.8368 39.4235C32.8468 40.6235 31.2768 41.3934 29.5168 41.3934L26.9068 42.9434C26.4668 43.2134 25.9068 42.8434 25.9668 42.3334L26.2168 40.3635C24.8768 39.4335 24.0168 37.9434 24.0168 36.2634C24.0168 35.9634 24.0468 35.6734 24.0968 35.3934" stroke="#F08000" stroke-width="1.5" stroke-linecap="round" stroke-linejoin="round"/>
</svg>
