<svg width="520" height="465" viewBox="0 0 520 465" fill="none" xmlns="http://www.w3.org/2000/svg">
<path d="M493.147 233.722C493.147 233.722 493.147 227.209 484.029 218.182C474.911 209.155 469.128 203.919 469.128 203.919C469.128 203.919 464.595 218.82 473.035 227.899C479.232 234.276 485.95 240.123 493.121 245.38L493.147 233.722Z" fill="#F7CA48"/>
<path d="M479.991 274.18C479.991 274.18 479.991 267.667 470.873 258.64C461.755 249.613 455.998 244.377 455.998 244.377C455.998 244.377 451.452 259.278 459.905 268.357C466.102 274.734 472.82 280.581 479.991 285.838V274.18Z" fill="#F7CA48"/>
<path d="M492.574 244.755C492.574 244.755 493.264 238.32 503.242 230.257C513.22 222.194 519.563 217.661 519.563 217.661C519.563 217.661 522.494 232.953 513.168 241.107C506.333 246.795 499.035 251.902 491.35 256.374L492.574 244.755Z" fill="#F7CA48"/>
<path d="M476.682 292.533C476.682 292.533 477.985 286.203 488.81 279.234C499.634 272.265 506.355 268.422 506.355 268.422C506.355 268.422 507.658 283.949 497.537 291.048C490.141 295.988 482.347 300.301 474.234 303.944L476.682 292.533Z" fill="#F7CA48"/>
<path d="M479.665 344.636C479.665 344.636 479.665 338.124 488.783 329.084C497.902 320.044 503.672 314.833 503.672 314.833C503.672 314.833 508.218 329.735 499.764 338.801C493.57 345.184 486.851 351.036 479.678 356.295L479.665 344.636Z" fill="#F7CA48"/>
<path d="M479.522 357.35C479.522 357.35 480.434 350.941 472.749 340.677C465.064 330.412 460.023 324.446 460.023 324.446C460.023 324.446 453.418 338.553 460.465 348.727C465.689 355.921 471.506 362.666 477.855 368.89L479.522 357.35Z" fill="#F7CA48"/>
<path d="M470.573 395.033C470.573 395.033 470.573 388.52 479.692 379.493C488.81 370.467 494.593 365.23 494.593 365.23C494.593 365.23 499.126 380.132 490.685 389.211C484.487 395.589 477.769 401.441 470.6 406.704L470.573 395.033Z" fill="#F7CA48"/>
<path d="M476.63 429.2C476.63 429.2 474.989 422.934 481.463 411.863C487.937 400.791 492.274 394.304 492.274 394.304C492.274 394.304 500.428 407.564 494.58 418.48C490.205 426.218 485.189 433.578 479.587 440.48L476.63 429.2Z" fill="#F7CA48"/>
<path d="M493.968 232.068C493.512 238.812 492.686 245.526 491.493 252.179C487.898 270.702 478.936 282.66 475.354 299.385C471.772 316.11 482.062 337.668 479.262 359.16C476.461 380.653 468.151 392.597 470.534 406.939C472.918 421.28 485.475 460.123 485.475 460.123" stroke="#263238" stroke-linecap="round" stroke-linejoin="round"/>
<path d="M492.496 249.066L502.265 241.563" stroke="#263238" stroke-linecap="round" stroke-linejoin="round"/>
<path d="M492.952 240.43L488.849 233.149" stroke="#263238" stroke-linecap="round" stroke-linejoin="round"/>
<path d="M475.901 298.616C475.901 298.616 484.081 292.481 492.496 286.346" stroke="#263238" stroke-linecap="round" stroke-linejoin="round"/>
<path d="M479.991 285.838C479.991 285.838 473.166 272.474 465.441 263.616" stroke="#263238" stroke-linecap="round" stroke-linejoin="round"/>
<path d="M479.991 353.859C484.657 345.235 490.555 337.336 497.498 330.412" stroke="#263238" stroke-linecap="round" stroke-linejoin="round"/>
<path d="M478.402 362.951C475.92 357.103 472.952 351.474 469.531 346.121C464.764 339.074 464.074 338.163 464.074 338.163" stroke="#263238" stroke-linecap="round" stroke-linejoin="round"/>
<path d="M470.573 406.939C472.65 401.805 475.115 396.836 477.946 392.076C480.779 387.652 483.973 383.47 487.494 379.572" stroke="#263238" stroke-linecap="round" stroke-linejoin="round"/>
<path d="M479.587 440.48C479.113 435.571 479.958 430.624 482.036 426.152C485.449 419.561 489.305 410.925 490.894 407.512" stroke="#263238" stroke-linecap="round" stroke-linejoin="round"/>
<path d="M419.135 320.278C419.135 320.278 418.431 316.214 423.133 309.532C427.836 302.85 430.949 298.981 430.949 298.981C430.949 298.981 435.404 307.839 431.105 314.43C427.913 319.105 424.336 323.505 420.411 327.586L419.135 320.278Z" fill="#F7CA48"/>
<path d="M431.783 344.22C431.783 344.22 431.079 340.156 435.782 333.473C440.484 326.791 443.597 322.922 443.597 322.922C443.597 322.922 448.052 331.78 443.753 338.384C440.559 343.054 436.982 347.45 433.059 351.527L431.783 344.22Z" fill="#F7CA48"/>
<path d="M420.685 327.13C420.685 327.13 419.564 323.222 412.426 319.197C405.288 315.172 400.833 313.062 400.833 313.062C400.833 313.062 400.651 322.975 407.346 327.065C412.248 329.887 417.376 332.296 422.678 334.268L420.685 327.13Z" fill="#F7CA48"/>
<path d="M435.847 355.37C435.847 355.37 434.31 351.54 426.807 348.336C419.304 345.131 414.615 343.464 414.615 343.464C414.615 343.464 415.474 353.338 422.612 356.698C427.785 358.99 433.14 360.846 438.621 362.247L435.847 355.37Z" fill="#F7CA48"/>
<path d="M439.624 388.364C439.624 388.364 438.934 384.3 432.252 379.598C425.569 374.895 421.362 372.277 421.362 372.277C421.362 372.277 420.138 382.112 426.403 386.879C430.98 390.212 435.83 393.153 440.901 395.672L439.624 388.364Z" fill="#F7CA48"/>
<path d="M441.109 396.323C441.109 396.323 439.807 392.415 443.545 385.121C447.283 377.826 449.758 373.567 449.758 373.567C449.758 373.567 455.424 381.695 452.116 388.846C449.623 393.923 446.708 398.781 443.402 403.37L441.109 396.323Z" fill="#F7CA48"/>
<path d="M452.494 429.083C452.494 429.083 452.963 424.993 459.358 419.965C465.754 414.937 469.779 412.032 469.779 412.032C469.779 412.032 471.563 421.788 465.585 426.907C461.205 430.491 456.535 433.702 451.621 436.507L452.494 429.083Z" fill="#F7CA48"/>
<path d="M450.787 418.975C450.787 418.975 450.084 414.911 443.415 410.208C436.745 405.506 432.551 402.888 432.551 402.888C432.551 402.888 431.327 412.722 437.592 417.503C442.173 420.83 447.022 423.771 452.09 426.295L450.787 418.975Z" fill="#F7CA48"/>
<path d="M450.787 441.066C450.787 441.066 451.126 436.95 445.864 430.711C440.601 424.472 437.188 420.876 437.188 420.876C437.188 420.876 433.502 430.073 438.361 436.286C441.922 440.661 445.843 444.731 450.084 448.452L450.787 441.066Z" fill="#F7CA48"/>
<path d="M418.444 319.314C419.463 323.496 420.711 327.618 422.183 331.663C426.442 342.891 433.359 349.417 437.423 359.512C441.487 369.607 437.423 384.261 441.435 397.43C445.447 410.599 452.09 417.19 452.09 426.438C452.09 435.687 448.495 461.413 448.495 461.413" stroke="#263238" stroke-linecap="round" stroke-linejoin="round"/>
<path d="M421.219 329.813L414.276 326.179" stroke="#263238" stroke-linecap="round" stroke-linejoin="round"/>
<path d="M419.994 324.446L421.766 319.445" stroke="#263238" stroke-linecap="round" stroke-linejoin="round"/>
<path d="M436.993 359.095C436.993 359.095 431.196 356.138 425.27 353.194" stroke="#263238" stroke-linecap="round" stroke-linejoin="round"/>
<path d="M433.046 351.527C434.755 346.16 437.002 340.98 439.754 336.065" stroke="#263238" stroke-linecap="round" stroke-linejoin="round"/>
<path d="M440.432 394.174C436.567 389.282 432.012 384.978 426.911 381.395" stroke="#263238" stroke-linecap="round" stroke-linejoin="round"/>
<path d="M442.412 399.696C443.339 395.766 444.589 391.919 446.15 388.195C448.377 383.258 448.755 382.607 448.755 382.607" stroke="#263238" stroke-linecap="round" stroke-linejoin="round"/>
<path d="M451.777 433.459C454.036 430.66 456.538 428.067 459.254 425.709C460.982 424.437 462.602 423.025 464.1 421.489" stroke="#263238" stroke-linecap="round" stroke-linejoin="round"/>
<path d="M452.09 426.438C450.229 423.437 448.143 420.58 445.85 417.894C443.593 415.429 441.135 413.155 438.504 411.094" stroke="#263238" stroke-linecap="round" stroke-linejoin="round"/>
<path d="M450.084 448.452C449.851 445.32 448.785 442.307 446.997 439.725C444.144 435.96 440.783 430.958 439.416 428.991" stroke="#263238" stroke-linecap="round" stroke-linejoin="round"/>
<path d="M49.1629 263.538L43.4576 247.243L49.1629 254.159L44.6821 229.71L51.6118 247.243L54.0606 212.998L58.1377 245.601L62.6186 239.088V247.243L67.9201 236.236L65.0674 255.384L69.9521 252.127L62.2148 262.717L49.1629 263.538Z" fill="#F7CA48"/>
<path d="M67.0995 259.461H45.9065L49.7231 302.25H63.2829L67.0995 259.461Z" fill="#263238" stroke="#263238" stroke-linecap="round" stroke-linejoin="round"/>
<path d="M106.854 301.769H34.6522V454.691H106.854V301.769Z" fill="white" stroke="#263238" stroke-linecap="round" stroke-linejoin="round"/>
<path d="M110.801 301.769H70.7467V454.691H110.801V301.769Z" fill="white" stroke="#263238" stroke-linecap="round" stroke-linejoin="round"/>
<path d="M106.294 301.769H70.7467V454.691H106.294V301.769Z" fill="#263238" stroke="#263238" stroke-linecap="round" stroke-linejoin="round"/>
<path d="M102.295 419.131H70.7467V450.445H102.295V419.131Z" fill="#F7CA48" stroke="#263238" stroke-linecap="round" stroke-linejoin="round"/>
<path d="M102.295 420.824H70.7467V424.836H102.295V420.824Z" fill="white" stroke="#263238" stroke-linecap="round" stroke-linejoin="round"/>
<path d="M102.295 443.88H70.7467V447.892H102.295V443.88Z" fill="white" stroke="#263238" stroke-linecap="round" stroke-linejoin="round"/>
<path d="M76.7255 419.782V459.381" stroke="#263238" stroke-linecap="round" stroke-linejoin="round"/>
<path d="M87.7323 419.782V459.381" stroke="#263238" stroke-linecap="round" stroke-linejoin="round"/>
<path d="M97.3975 419.782V459.381" stroke="#263238" stroke-linecap="round" stroke-linejoin="round"/>
<path d="M102.295 307.448H70.7467V353.494H102.295V307.448Z" fill="#F7CA48" stroke="#263238" stroke-linecap="round" stroke-linejoin="round"/>
<path d="M102.295 309.376H70.7467V313.935H102.295V309.376Z" fill="white" stroke="#263238" stroke-linecap="round" stroke-linejoin="round"/>
<path d="M102.295 338.892H70.7467V343.451H102.295V338.892Z" fill="white" stroke="#263238" stroke-linecap="round" stroke-linejoin="round"/>
<path d="M76.7255 308.177V353.181" stroke="#263238" stroke-linecap="round" stroke-linejoin="round"/>
<path d="M87.7323 308.177V353.181" stroke="#263238" stroke-linecap="round" stroke-linejoin="round"/>
<path d="M97.3975 308.177V353.181" stroke="#263238" stroke-linecap="round" stroke-linejoin="round"/>
<path d="M102.295 362.938H70.7467V408.984H102.295V362.938Z" fill="#F7CA48" stroke="#263238" stroke-linecap="round" stroke-linejoin="round"/>
<path d="M102.295 364.865H70.7467V369.424H102.295V364.865Z" fill="white" stroke="#263238" stroke-linecap="round" stroke-linejoin="round"/>
<path d="M102.295 394.382H70.7467V398.941H102.295V394.382Z" fill="white" stroke="#263238" stroke-linecap="round" stroke-linejoin="round"/>
<path d="M76.7255 363.68V408.671" stroke="#263238" stroke-linecap="round" stroke-linejoin="round"/>
<path d="M87.7323 363.68V408.671" stroke="#263238" stroke-linecap="round" stroke-linejoin="round"/>
<path d="M97.3975 363.68V408.671" stroke="#263238" stroke-linecap="round" stroke-linejoin="round"/>
<path d="M106.841 352.856H70.7467V358.092H106.841V352.856Z" fill="white" stroke="#263238" stroke-linecap="round" stroke-linejoin="round"/>
<path d="M106.841 408.697H70.7467V413.934H106.841V408.697Z" fill="white" stroke="#263238" stroke-linecap="round" stroke-linejoin="round"/>
<path d="M106.841 301.769V454.678" stroke="#263238" stroke-linecap="round" stroke-linejoin="round"/>
<path d="M65.6536 301.769V454.678H70.7467V307.448H106.216V301.703L65.6536 301.769Z" fill="white" stroke="#263238" stroke-linecap="round" stroke-linejoin="round"/>
<path d="M70.7467 307.448V301.769" stroke="#263238" stroke-linecap="round" stroke-linejoin="round"/>
<path d="M106.568 231.52C102.777 224.213 101.188 218.977 101.188 217.765C101.188 215.368 106.398 213.936 106.398 213.936C114.526 209.637 152.757 215.85 169.964 218.716C179.597 220.395 189.341 221.353 199.116 221.582C199.116 221.582 201.5 219.68 204.326 217.283C207.153 214.887 220.569 199.125 225.832 197.745C231.094 196.364 235.862 199.659 235.862 199.659C235.862 199.659 244.472 204.87 243.026 205.873C241.58 206.876 220.569 224.981 215.307 228.329C210.045 231.677 199.064 230.244 189.503 232.159C181.271 233.8 147.925 235.832 140.278 236.457C134.536 237.819 128.509 237.317 123.071 235.024" fill="white"/>
<mask id="mask0_26_574" style="mask-type:luminance" maskUnits="userSpaceOnUse" x="101" y="197" width="143" height="41">
<path d="M106.568 231.52C102.777 224.213 101.188 218.977 101.188 217.765C101.188 215.368 106.398 213.936 106.398 213.936C114.526 209.637 152.757 215.85 169.964 218.716C179.597 220.395 189.341 221.353 199.116 221.582C199.116 221.582 201.5 219.68 204.326 217.283C207.153 214.887 220.569 199.125 225.832 197.745C231.094 196.364 235.862 199.659 235.862 199.659C235.862 199.659 244.472 204.87 243.026 205.873C241.58 206.876 220.569 224.981 215.307 228.329C210.045 231.677 199.064 230.244 189.503 232.159C181.271 233.8 147.925 235.832 140.278 236.457C134.536 237.819 128.509 237.317 123.071 235.024" fill="white"/>
</mask>
<g mask="url(#mask0_26_574)">
<path d="M235.953 199.607C235.953 199.607 231.172 196.26 225.923 197.692C220.674 199.125 207.283 214.899 204.417 217.231C201.552 219.563 199.207 221.53 199.207 221.53C189.432 221.301 179.688 220.343 170.055 218.664C152.848 215.798 114.618 209.546 106.489 213.883C106.489 213.883 101.279 215.316 101.279 217.713C101.46 219.053 101.806 220.365 102.308 221.621L103.025 221.881C103.025 221.881 112.573 220.878 133.179 221.373C153.786 221.868 201.448 224.695 204.509 225.802C205.811 226.297 215.046 224.213 225.285 220.592C233.1 214.222 242.283 206.263 243.208 205.703C244.563 204.857 235.953 199.607 235.953 199.607Z" fill="#F7CA48"/>
<path opacity="0.5" d="M235.953 199.607C235.953 199.607 231.172 196.26 225.923 197.692C220.674 199.125 207.283 214.899 204.417 217.231C201.552 219.563 199.207 221.53 199.207 221.53C189.432 221.301 179.688 220.343 170.055 218.664C152.848 215.798 114.618 209.546 106.489 213.883C106.489 213.883 101.279 215.316 101.279 217.713C101.46 219.053 101.806 220.365 102.308 221.621L103.025 221.881C103.025 221.881 112.573 220.878 133.179 221.373C153.786 221.868 201.448 224.695 204.509 225.802C205.811 226.297 215.046 224.213 225.285 220.592C233.1 214.222 242.283 206.263 243.208 205.703C244.563 204.857 235.953 199.607 235.953 199.607Z" fill="white"/>
</g>
<path d="M106.568 231.52C102.777 224.213 101.188 218.977 101.188 217.765C101.188 215.368 106.398 213.936 106.398 213.936C114.526 209.637 152.757 215.85 169.964 218.716C179.597 220.395 189.341 221.353 199.116 221.582C199.116 221.582 201.5 219.68 204.326 217.283C207.153 214.887 220.569 199.125 225.832 197.745C231.094 196.364 235.862 199.659 235.862 199.659C235.862 199.659 244.472 204.87 243.026 205.873C241.58 206.876 220.569 224.981 215.307 228.329C210.045 231.677 199.064 230.244 189.503 232.159C181.271 233.8 147.925 235.832 140.278 236.457C134.536 237.819 128.509 237.317 123.071 235.024" stroke="#263238" stroke-linecap="round" stroke-linejoin="round"/>
<path d="M295.324 274.011C296.189 272.369 297.486 270.996 299.074 270.039C300.663 269.081 302.483 268.576 304.338 268.579H391.22C391.22 268.579 397.499 268.579 395.623 280.51C393.747 292.442 367.982 365.295 361.756 387.322C355.53 409.349 354.214 455.772 354.214 455.772H250.008C250.008 455.772 258.266 344.754 295.324 274.011Z" fill="white"/>
<mask id="mask1_26_574" style="mask-type:luminance" maskUnits="userSpaceOnUse" x="250" y="268" width="146" height="188">
<path d="M295.324 274.011C296.189 272.369 297.486 270.996 299.074 270.039C300.663 269.081 302.483 268.576 304.338 268.579H391.22C391.22 268.579 397.499 268.579 395.623 280.51C393.747 292.442 367.982 365.295 361.756 387.322C355.53 409.349 354.214 455.772 354.214 455.772H250.008C250.008 455.772 258.266 344.754 295.324 274.011Z" fill="white"/>
</mask>
<g mask="url(#mask1_26_574)">
<path opacity="0.16" d="M334.454 268.579H304.338C302.483 268.576 300.663 269.081 299.074 270.039C297.486 270.996 296.189 272.369 295.324 274.011C258.266 344.754 249.917 455.733 249.917 455.733H296.653L308.181 411.954L356.246 421.866C356.585 418.193 356.975 414.455 357.431 410.768L356.376 399.045C356.376 399.045 346.529 388.69 343.429 386.098C340.329 383.505 342.387 378.829 341.866 358.626C341.345 338.423 323.213 323.899 316.465 311.46C309.718 299.02 320.099 291.244 329.426 278.804C332.748 274.31 334.102 271.002 334.454 268.579Z" fill="black"/>
</g>
<path d="M295.324 274.011C296.189 272.369 297.486 270.996 299.074 270.039C300.663 269.081 302.483 268.576 304.338 268.579H391.22C391.22 268.579 397.499 268.579 395.623 280.51C393.747 292.442 367.982 365.295 361.756 387.322C355.53 409.349 354.214 455.772 354.214 455.772H250.008C250.008 455.772 258.266 344.754 295.324 274.011Z" stroke="#263238" stroke-linecap="round" stroke-linejoin="round"/>
<path d="M376.149 289.303C367.37 309.792 348.795 390.904 345.773 455.733H354.162C354.162 455.733 355.464 409.257 361.704 387.283C367.943 365.308 393.734 292.442 395.571 280.471C397.408 268.501 391.168 268.54 391.168 268.54C391.168 268.54 383.196 272.877 376.149 289.303Z" fill="#263238" stroke="#263238" stroke-linecap="round" stroke-linejoin="round"/>
<path d="M223.526 248.35C223.526 248.35 209.667 240.222 204.417 225.893C199.168 211.565 245.514 188.614 265.639 187.181C285.763 185.748 291.443 190.997 303.413 211.552C315.384 232.107 323.486 260.294 317.273 274.154C311.06 288.013 300.548 291.361 308.155 302.811C315.762 314.26 337.307 346.773 335.874 362.065C334.441 377.357 319.631 390.722 298.099 392.181C276.567 393.639 247.911 380.705 224.021 359.616C200.132 338.527 206.332 307.513 214.903 297.483C223.474 287.453 236.409 283.624 237.36 273.594C238.311 263.564 223.526 248.35 223.526 248.35Z" fill="#263238" stroke="#263238" stroke-linecap="round" stroke-linejoin="round"/>
<path d="M282.598 225.672C289.958 239.375 299.167 257.728 302.046 268.813C307.074 288.222 281.205 300.44 288.382 309.779" stroke="white" stroke-linecap="round" stroke-linejoin="round"/>
<path d="M272.568 207.722C272.568 207.722 275.434 212.607 279.394 219.797" stroke="white" stroke-linecap="round" stroke-linejoin="round"/>
<path d="M311.177 242.202C312.026 244.77 312.576 247.427 312.818 250.121" stroke="white" stroke-linecap="round" stroke-linejoin="round"/>
<path d="M277.544 200.597C277.544 200.597 300.183 217.322 309.223 237.343" stroke="white" stroke-linecap="round" stroke-linejoin="round"/>
<path d="M246.126 213.141C229.961 217.674 206.71 225.034 208.599 229.28" stroke="white" stroke-linecap="round" stroke-linejoin="round"/>
<path d="M261.067 209.155C261.067 209.155 257.615 210.015 252.47 211.396" stroke="white" stroke-linecap="round" stroke-linejoin="round"/>
<path d="M241.072 200.714C250.331 197.796 260.029 196.518 269.729 196.937" stroke="white" stroke-linecap="round" stroke-linejoin="round"/>
<path d="M234.481 203.411C235.945 202.648 237.459 201.986 239.014 201.431" stroke="white" stroke-linecap="round" stroke-linejoin="round"/>
<path d="M106.568 231.52C104.374 227.503 102.627 223.257 101.357 218.859C102.621 223.259 104.368 227.506 106.568 231.52ZM101.214 218.117C101.214 218.195 101.214 218.286 101.214 218.403C101.24 218.286 101.227 218.195 101.214 218.117ZM106.568 231.507C111.439 240.735 117.5 249.283 124.595 256.934C141.802 275.574 191.509 324.329 196.237 327.677C200.966 331.024 199.585 340.572 196.237 350.133C192.89 359.694 180.463 373.58 180.945 388.846C181.427 404.112 186.155 427.559 185.725 432.339C185.296 437.12 173.338 453.376 173.338 453.376H296.64C296.64 453.376 281.27 433.837 281.27 427.155C281.27 420.473 302.371 334.854 303.322 328.641C304.273 322.427 300.457 318.129 292.81 317.647C285.164 317.165 256.013 310.952 254.58 306.171C253.147 301.391 262.226 283.233 262.226 283.233L233.569 284.666C233.569 284.666 232.136 297.092 230.222 299.489C228.307 301.886 225.441 297.092 218.746 293.758C212.051 290.423 199.207 287.544 194.375 283.715C189.542 279.885 143.717 236.822 143.717 236.822" fill="white"/>
<mask id="mask2_26_574" style="mask-type:luminance" maskUnits="userSpaceOnUse" x="101" y="218" width="203" height="236">
<path d="M106.568 231.52C104.374 227.503 102.627 223.257 101.357 218.859C102.621 223.259 104.368 227.506 106.568 231.52ZM101.214 218.117C101.214 218.195 101.214 218.286 101.214 218.403C101.24 218.286 101.227 218.195 101.214 218.117ZM106.568 231.507C111.439 240.735 117.5 249.283 124.595 256.934C141.802 275.574 191.509 324.329 196.237 327.677C200.966 331.024 199.585 340.572 196.237 350.133C192.89 359.694 180.463 373.58 180.945 388.846C181.427 404.112 186.155 427.559 185.725 432.339C185.296 437.12 173.338 453.376 173.338 453.376H296.64C296.64 453.376 281.27 433.837 281.27 427.155C281.27 420.473 302.371 334.854 303.322 328.641C304.273 322.427 300.457 318.129 292.81 317.647C285.164 317.165 256.013 310.952 254.58 306.171C253.147 301.391 262.226 283.233 262.226 283.233L233.569 284.666C233.569 284.666 232.136 297.092 230.222 299.489C228.307 301.886 225.441 297.092 218.746 293.758C212.051 290.423 199.207 287.544 194.375 283.715C189.542 279.885 143.717 236.822 143.717 236.822" fill="white"/>
</mask>
<g mask="url(#mask2_26_574)">
<path d="M201.695 287.401C204.079 291.569 206.462 295.334 206.462 295.334C206.462 295.334 214.499 299.854 216.505 299.854C218.511 299.854 230.573 306.367 230.573 306.367C230.573 306.367 240.629 303.853 237.086 295.308C235.968 293.12 234.557 291.096 232.892 289.29C232.293 293.08 231.329 298.043 230.195 299.463C228.281 301.847 225.415 297.066 218.72 293.732C214.382 291.569 207.361 289.589 201.695 287.401Z" fill="#F7CA48"/>
<path d="M177.154 268.058C162.396 254.394 143.717 236.874 143.717 236.874L132.854 235.311L131.551 236.04C131.551 236.04 162.214 263.173 168.74 266.195C171.38 267.409 174.249 268.044 177.154 268.058Z" fill="#F7CA48"/>
<path d="M192.616 282.204L191.444 281.162C192.043 282.152 192.382 282.777 192.382 282.777L192.616 282.204Z" fill="#F7CA48"/>
<g opacity="0.5">
<path d="M201.695 287.401C204.079 291.569 206.462 295.334 206.462 295.334C206.462 295.334 214.499 299.854 216.505 299.854C218.511 299.854 230.573 306.367 230.573 306.367C230.573 306.367 240.629 303.853 237.086 295.308C235.968 293.12 234.557 291.096 232.892 289.29C232.293 293.08 231.329 298.043 230.195 299.463C228.281 301.847 225.415 297.066 218.72 293.732C214.382 291.569 207.361 289.589 201.695 287.401Z" fill="white"/>
<path d="M177.154 268.058C162.396 254.394 143.717 236.874 143.717 236.874L132.854 235.311L131.551 236.04C131.551 236.04 162.214 263.173 168.74 266.195C171.38 267.409 174.249 268.044 177.154 268.058Z" fill="white"/>
<path d="M192.616 282.204L191.444 281.162C192.043 282.152 192.382 282.777 192.382 282.777L192.616 282.204Z" fill="white"/>
</g>
</g>
<path d="M101.188 217.765C101.182 217.856 101.182 217.948 101.188 218.039M101.357 218.859C102.627 223.257 104.374 227.503 106.568 231.52C104.368 227.506 102.621 223.259 101.357 218.859ZM101.357 218.859C101.321 218.736 101.295 218.609 101.279 218.482M106.568 231.507C111.439 240.735 117.5 249.283 124.595 256.934C141.802 275.574 191.509 324.329 196.237 327.677C200.966 331.024 199.585 340.572 196.237 350.133C192.89 359.694 180.463 373.58 180.945 388.846C181.427 404.112 186.155 427.559 185.725 432.339C185.296 437.12 173.338 453.376 173.338 453.376H296.64C296.64 453.376 281.27 433.837 281.27 427.155C281.27 420.473 302.371 334.854 303.322 328.641C304.273 322.427 300.457 318.129 292.81 317.647C285.164 317.165 256.013 310.952 254.58 306.171C253.147 301.391 262.226 283.233 262.226 283.233L233.569 284.666C233.569 284.666 232.136 297.092 230.222 299.489C228.307 301.886 225.441 297.092 218.746 293.758C212.051 290.423 199.207 287.544 194.375 283.715C189.542 279.885 143.717 236.822 143.717 236.822M101.214 218.117C101.214 218.195 101.214 218.286 101.214 218.403C101.24 218.286 101.227 218.195 101.214 218.117Z" stroke="#263238" stroke-linecap="round" stroke-linejoin="round"/>
<path d="M143.717 236.874C143.717 236.874 128.451 237.161 119.932 230.14" stroke="#263238" stroke-linecap="round" stroke-linejoin="round"/>
<path d="M254.593 306.171C253.16 301.404 262.239 283.233 262.239 283.233L233.582 284.666C233.582 284.666 232.149 297.092 230.235 299.489C228.32 301.886 225.454 297.092 218.759 293.758C218.251 293.497 217.691 293.25 217.118 293.002L215.385 320.239C215.385 320.239 217.899 346.616 248.041 341.601C260.246 339.569 273.272 328.68 284.513 316.436C272.946 314.312 255.687 309.832 254.593 306.171Z" fill="white"/>
<mask id="mask3_26_574" style="mask-type:luminance" maskUnits="userSpaceOnUse" x="215" y="283" width="70" height="60">
<path d="M254.593 306.171C253.16 301.404 262.239 283.233 262.239 283.233L233.582 284.666C233.582 284.666 232.149 297.092 230.235 299.489C228.32 301.886 225.454 297.092 218.759 293.758C218.251 293.497 217.691 293.25 217.118 293.002L215.385 320.239C215.385 320.239 217.899 346.616 248.041 341.601C260.246 339.569 273.272 328.68 284.513 316.436C272.946 314.312 255.687 309.832 254.593 306.171Z" fill="white"/>
</mask>
<g mask="url(#mask3_26_574)">
<path d="M253.785 286.841C253.785 286.841 252.053 296.558 250.659 307.305C249.265 318.051 248.236 326.049 248.236 326.049L254.593 306.171L261.757 285.109C261.757 285.109 254.827 285.109 253.785 286.841Z" fill="#F7CA48"/>
<path opacity="0.5" d="M253.785 286.841C253.785 286.841 252.053 296.558 250.659 307.305C249.265 318.051 248.236 326.049 248.236 326.049L254.593 306.171L261.757 285.109C261.757 285.109 254.827 285.109 253.785 286.841Z" fill="white"/>
</g>
<path d="M254.593 306.171C253.16 301.404 262.239 283.233 262.239 283.233L233.582 284.666C233.582 284.666 232.149 297.092 230.235 299.489C228.32 301.886 225.454 297.092 218.759 293.758C218.251 293.497 217.691 293.25 217.118 293.002L215.385 320.239C215.385 320.239 217.899 346.616 248.041 341.601C260.246 339.569 273.272 328.68 284.513 316.436C272.946 314.312 255.687 309.832 254.593 306.171Z" stroke="#263238" stroke-linecap="round" stroke-linejoin="round"/>
<path d="M230.222 299.489C228.307 301.873 225.441 297.092 218.746 293.758C214.525 291.634 207.804 289.707 202.242 287.623C200.666 283.884 198.582 279.012 197.24 276.069C194.857 270.858 191.027 274.154 191.027 274.154C189.029 271.882 187.414 269.299 186.246 266.508C183.863 261.297 180.033 261.727 174.784 260.776C169.534 259.826 158.528 249.783 158.528 249.783C158.528 249.783 153.382 245.875 151.259 243.934C148.784 248.806 142.858 257.377 130.04 262.73C150.478 284.08 191.939 324.642 196.289 327.69C201.07 331.024 199.637 340.585 196.289 350.146C192.942 359.707 180.515 373.593 180.997 388.859C181.479 404.125 186.207 427.572 185.778 432.352C185.348 436.612 175.813 449.963 173.742 452.829L178.6 453.376H203.896C203.753 440.558 203.766 388.247 212.533 367.406C222.575 343.451 230.222 299.489 230.222 299.489Z" fill="#F7CA48"/>
<mask id="mask4_26_574" style="mask-type:luminance" maskUnits="userSpaceOnUse" x="130" y="243" width="101" height="211">
<path d="M230.222 299.489C228.307 301.873 225.441 297.092 218.746 293.758C214.525 291.634 207.804 289.707 202.242 287.623C200.666 283.884 198.582 279.012 197.24 276.069C194.857 270.858 191.027 274.154 191.027 274.154C189.029 271.882 187.414 269.299 186.246 266.508C183.863 261.297 180.033 261.727 174.784 260.776C169.534 259.826 158.528 249.783 158.528 249.783C158.528 249.783 153.382 245.875 151.259 243.934C148.784 248.806 142.858 257.377 130.04 262.73C150.478 284.08 191.939 324.642 196.289 327.69C201.07 331.024 199.637 340.585 196.289 350.146C192.942 359.707 180.515 373.593 180.997 388.859C181.479 404.125 186.207 427.572 185.778 432.352C185.348 436.612 175.813 449.963 173.742 452.829L178.6 453.376H203.896C203.753 440.558 203.766 388.247 212.533 367.406C222.575 343.451 230.222 299.489 230.222 299.489Z" fill="white"/>
</mask>
<g mask="url(#mask4_26_574)">
<path opacity="0.16" d="M218.746 293.758C214.525 291.634 207.804 289.707 202.242 287.623C200.666 283.884 198.582 279.013 197.24 276.069C194.857 270.858 191.027 274.154 191.027 274.154C189.029 271.882 187.414 269.299 186.246 266.508C183.863 261.297 180.033 261.727 174.784 260.776C169.534 259.826 158.528 249.783 158.528 249.783C158.528 249.783 153.382 245.875 151.259 243.934C150.2 246.003 148.939 247.962 147.495 249.783C156.04 257.012 165.47 264.671 168.766 266.195C175.279 269.204 176.803 266.69 181.792 269.712C186.781 272.734 192.343 282.738 192.343 282.738C192.343 282.738 195.365 274.688 197.879 280.224C200.392 285.76 206.423 295.295 206.423 295.295C206.423 295.295 214.46 299.815 216.466 299.815C218.042 299.815 225.767 303.827 229.049 305.559C229.779 301.742 230.182 299.45 230.182 299.45C228.307 301.873 225.441 297.092 218.746 293.758Z" fill="black"/>
</g>
<path d="M230.222 299.489C228.307 301.873 225.441 297.092 218.746 293.758C214.525 291.634 207.804 289.707 202.242 287.623C200.666 283.884 198.582 279.012 197.24 276.069C194.857 270.858 191.027 274.154 191.027 274.154C189.029 271.882 187.414 269.299 186.246 266.508C183.863 261.297 180.033 261.727 174.784 260.776C169.534 259.826 158.528 249.783 158.528 249.783C158.528 249.783 153.382 245.875 151.259 243.934C148.784 248.806 142.858 257.377 130.04 262.73C150.478 284.08 191.939 324.642 196.289 327.69C201.07 331.024 199.637 340.585 196.289 350.146C192.942 359.707 180.515 373.593 180.997 388.859C181.479 404.125 186.207 427.572 185.778 432.352C185.348 436.612 175.813 449.963 173.742 452.829L178.6 453.376H203.896C203.753 440.558 203.766 388.247 212.533 367.406C222.575 343.451 230.222 299.489 230.222 299.489Z" stroke="#263238" stroke-linecap="round" stroke-linejoin="round"/>
<path d="M230.56 297.822C230.56 297.822 224.62 295.998 220.96 299.203C217.3 302.407 211.842 318.845 208.625 336.678C206.642 347.059 208.01 357.801 212.533 367.353C212.533 367.353 220.048 347.645 222.328 338.045C224.607 328.445 230.56 297.822 230.56 297.822Z" fill="#F7CA48"/>
<mask id="mask5_26_574" style="mask-type:luminance" maskUnits="userSpaceOnUse" x="207" y="297" width="24" height="71">
<path d="M230.56 297.822C230.56 297.822 224.62 295.998 220.96 299.203C217.3 302.407 211.842 318.845 208.625 336.678C206.642 347.059 208.01 357.801 212.533 367.353C212.533 367.353 220.048 347.645 222.328 338.045C224.607 328.445 230.56 297.822 230.56 297.822Z" fill="white"/>
</mask>
<g mask="url(#mask5_26_574)">
<path opacity="0.16" d="M219.163 300.726C219.163 300.726 223.461 299.684 225.233 300.284C226.724 300.923 228.119 301.77 229.375 302.798L230.56 297.822C228.782 296.913 226.765 296.581 224.79 296.871C221.833 297.47 219.163 300.726 219.163 300.726Z" fill="black"/>
</g>
<path d="M230.56 297.822C230.56 297.822 224.62 295.998 220.96 299.203C217.3 302.407 211.842 318.845 208.625 336.678C206.642 347.059 208.01 357.801 212.533 367.353C212.533 367.353 220.048 347.645 222.328 338.045C224.607 328.445 230.56 297.822 230.56 297.822Z" stroke="#263238" stroke-linecap="round" stroke-linejoin="round"/>
<path d="M190.558 299.385L198.204 330.451L180.997 291.257" stroke="#263238" stroke-linecap="round" stroke-linejoin="round"/>
<path d="M240.929 453.376H296.653C296.653 453.376 281.283 433.837 281.283 427.155C281.283 420.473 302.384 334.854 303.335 328.641C304.286 322.427 300.47 318.129 292.823 317.647C285.177 317.165 256.026 310.952 254.593 306.171C254.593 306.171 243.599 344.884 239.782 371.17C236.5 393.718 239.9 440.506 240.929 453.376Z" fill="#F7CA48"/>
<mask id="mask6_26_574" style="mask-type:luminance" maskUnits="userSpaceOnUse" x="238" y="306" width="66" height="148">
<path d="M240.929 453.376H296.653C296.653 453.376 281.283 433.837 281.283 427.155C281.283 420.473 302.384 334.854 303.335 328.641C304.286 322.427 300.47 318.129 292.823 317.647C285.177 317.165 256.026 310.952 254.593 306.171C254.593 306.171 243.599 344.884 239.782 371.17C236.5 393.718 239.9 440.506 240.929 453.376Z" fill="white"/>
</mask>
<g mask="url(#mask6_26_574)">
<path opacity="0.16" d="M292.823 317.647C286.558 317.256 265.86 313.01 257.797 308.868L260.728 315.641C266.038 318.458 271.749 320.444 277.661 321.529C287.366 323.261 296.393 322.922 302.293 331.598L302.58 332.027C302.945 330.36 303.192 329.188 303.27 328.641C304.299 322.427 300.47 318.129 292.823 317.647Z" fill="black"/>
</g>
<path d="M240.929 453.376H296.653C296.653 453.376 281.283 433.837 281.283 427.155C281.283 420.473 302.384 334.854 303.335 328.641C304.286 322.427 300.47 318.129 292.823 317.647C285.177 317.165 256.026 310.952 254.593 306.171C254.593 306.171 243.599 344.884 239.782 371.17C236.5 393.718 239.9 440.506 240.929 453.376Z" stroke="#263238" stroke-linecap="round" stroke-linejoin="round"/>
<path d="M254.593 306.171C254.593 306.171 239.848 353.064 239.782 371.17C239.782 371.17 260.728 345.809 263.463 327.989C266.199 310.17 254.593 306.171 254.593 306.171Z" fill="#F7CA48"/>
<mask id="mask7_26_574" style="mask-type:luminance" maskUnits="userSpaceOnUse" x="239" y="306" width="25" height="66">
<path d="M254.593 306.171C254.593 306.171 239.848 353.064 239.782 371.17C239.782 371.17 260.728 345.809 263.463 327.989C266.199 310.17 254.593 306.171 254.593 306.171Z" fill="white"/>
</mask>
<g mask="url(#mask7_26_574)">
<path opacity="0.16" d="M252.053 312.163C254.268 312.089 256.469 312.555 258.464 313.522C260.458 314.489 262.188 315.927 263.502 317.712C263.502 317.712 260.611 309.206 254.593 306.171L252.053 312.163Z" fill="black"/>
</g>
<path d="M254.593 306.171C254.593 306.171 239.848 353.064 239.782 371.17C239.782 371.17 260.728 345.809 263.463 327.989C266.199 310.17 254.593 306.171 254.593 306.171Z" stroke="#263238" stroke-linecap="round" stroke-linejoin="round"/>
<path d="M412.01 444.557C412.01 444.557 422.808 445 429.881 446.016C434.598 446.656 439.346 447.034 444.105 447.149C444.105 447.149 440.197 439.256 436.029 437.028C431.861 434.801 424.306 430.815 417.975 431.701C411.645 432.587 402.592 438.969 403.347 441.001C404.103 443.033 407.477 443.945 412.01 444.557Z" fill="white"/>
<mask id="mask8_26_574" style="mask-type:luminance" maskUnits="userSpaceOnUse" x="403" y="431" width="42" height="17">
<path d="M412.01 444.557C412.01 444.557 422.808 445 429.881 446.016C434.598 446.656 439.346 447.034 444.105 447.149C444.105 447.149 440.197 439.256 436.029 437.028C431.861 434.801 424.306 430.815 417.975 431.701C411.645 432.587 402.592 438.969 403.347 441.001C404.103 443.033 407.477 443.945 412.01 444.557Z" fill="white"/>
</mask>
<g mask="url(#mask8_26_574)">
<path d="M412.01 444.557C412.01 444.557 422.808 445 429.881 446.016C434.598 446.656 439.346 447.034 444.105 447.149C444.105 447.149 440.197 439.256 436.029 437.028C431.861 434.801 424.306 430.815 417.975 431.701C411.645 432.587 402.592 438.969 403.347 441.001C404.103 443.033 407.477 443.945 412.01 444.557Z" fill="#F7CA48"/>
<path opacity="0.5" d="M412.01 444.557C412.01 444.557 422.808 445 429.881 446.016C434.598 446.656 439.346 447.034 444.105 447.149C444.105 447.149 440.197 439.256 436.029 437.028C431.861 434.801 424.306 430.815 417.975 431.701C411.645 432.587 402.592 438.969 403.347 441.001C404.103 443.033 407.477 443.945 412.01 444.557Z" fill="white"/>
</g>
<path d="M412.01 444.557C412.01 444.557 422.808 445 429.881 446.016C434.598 446.656 439.346 447.034 444.105 447.149C444.105 447.149 440.197 439.256 436.029 437.028C431.861 434.801 424.306 430.815 417.975 431.701C411.645 432.587 402.592 438.969 403.347 441.001C404.103 443.033 407.477 443.945 412.01 444.557Z" stroke="#263238" stroke-linecap="round" stroke-linejoin="round"/>
<path d="M429.946 441.327C429.946 441.327 438.504 436.885 440.64 436.95C442.776 437.015 456.975 446.615 456.271 448.152C455.794 448.865 455.104 449.41 454.3 449.709C453.496 450.008 452.618 450.047 451.79 449.82C450.214 449.077 440.653 445.013 440.653 445.013L434.401 446.485L429.946 441.327Z" fill="white"/>
<mask id="mask9_26_574" style="mask-type:luminance" maskUnits="userSpaceOnUse" x="429" y="436" width="28" height="14">
<path d="M429.946 441.327C429.946 441.327 438.504 436.885 440.64 436.95C442.776 437.015 456.975 446.615 456.271 448.152C455.794 448.865 455.104 449.41 454.3 449.709C453.496 450.008 452.618 450.047 451.79 449.82C450.214 449.077 440.653 445.013 440.653 445.013L434.401 446.485L429.946 441.327Z" fill="white"/>
</mask>
<g mask="url(#mask9_26_574)">
<path d="M429.946 441.327C429.946 441.327 438.504 436.885 440.64 436.95C442.776 437.015 456.975 446.615 456.271 448.152C455.568 449.689 452.207 450.94 451.79 449.82C451.373 448.7 440.653 445.013 440.653 445.013L434.401 446.485L429.946 441.327Z" fill="#F7CA48"/>
<path opacity="0.5" d="M429.946 441.327C429.946 441.327 438.504 436.885 440.64 436.95C442.776 437.015 456.975 446.615 456.271 448.152C455.568 449.689 452.207 450.94 451.79 449.82C451.373 448.7 440.653 445.013 440.653 445.013L434.401 446.485L429.946 441.327Z" fill="white"/>
</g>
<path d="M429.946 441.327C429.946 441.327 438.504 436.885 440.64 436.95C442.776 437.015 456.975 446.615 456.271 448.152C455.794 448.865 455.104 449.41 454.3 449.709C453.496 450.008 452.618 450.047 451.79 449.82C450.214 449.077 440.653 445.013 440.653 445.013L434.401 446.485L429.946 441.327Z" stroke="#263238" stroke-linecap="round" stroke-linejoin="round"/>
<path d="M423.837 434.019C423.837 434.019 435.248 433.655 437.514 434.801C439.78 435.947 450.019 453.506 448.482 454.783C446.945 456.059 442.698 455.681 442.829 454.262C442.959 452.842 433.398 443.437 433.398 443.437L425.96 441.809L423.837 434.019Z" fill="white"/>
<mask id="mask10_26_574" style="mask-type:luminance" maskUnits="userSpaceOnUse" x="423" y="433" width="26" height="23">
<path d="M423.837 434.019C423.837 434.019 435.248 433.655 437.514 434.801C439.78 435.947 450.019 453.506 448.482 454.783C446.945 456.059 442.698 455.681 442.829 454.262C442.959 452.842 433.398 443.437 433.398 443.437L425.96 441.809L423.837 434.019Z" fill="white"/>
</mask>
<g mask="url(#mask10_26_574)">
<path d="M423.837 434.019C423.837 434.019 435.248 433.655 437.514 434.801C439.78 435.947 450.019 453.506 448.482 454.783C446.945 456.059 442.698 455.681 442.829 454.262C442.959 452.842 433.398 443.437 433.398 443.437L425.96 441.809L423.837 434.019Z" fill="#F7CA48"/>
<path opacity="0.5" d="M423.837 434.019C423.837 434.019 435.248 433.655 437.514 434.801C439.78 435.947 450.019 453.506 448.482 454.783C446.945 456.059 442.698 455.681 442.829 454.262C442.959 452.842 433.398 443.437 433.398 443.437L425.96 441.809L423.837 434.019Z" fill="white"/>
</g>
<path d="M423.837 434.019C423.837 434.019 435.248 433.655 437.514 434.801C439.78 435.947 450.019 453.506 448.482 454.783C446.945 456.059 442.698 455.681 442.829 454.262C442.959 452.842 433.398 443.437 433.398 443.437L425.96 441.809L423.837 434.019Z" stroke="#263238" stroke-linecap="round" stroke-linejoin="round"/>
<path d="M417.077 431.662C417.077 431.662 428.63 431.284 430.923 432.456C433.216 433.629 443.584 451.383 442.021 452.685C440.458 453.988 436.185 453.584 436.316 452.151C436.446 450.718 426.768 441.197 426.768 441.197L419.239 439.542L417.077 431.662Z" fill="white"/>
<mask id="mask11_26_574" style="mask-type:luminance" maskUnits="userSpaceOnUse" x="417" y="431" width="26" height="23">
<path d="M417.077 431.662C417.077 431.662 428.63 431.284 430.923 432.456C433.216 433.629 443.584 451.383 442.021 452.685C440.458 453.988 436.185 453.584 436.316 452.151C436.446 450.718 426.768 441.197 426.768 441.197L419.239 439.542L417.077 431.662Z" fill="white"/>
</mask>
<g mask="url(#mask11_26_574)">
<path d="M417.077 431.662C417.077 431.662 428.63 431.284 430.923 432.456C433.216 433.629 443.584 451.383 442.021 452.685C440.458 453.988 436.185 453.584 436.316 452.151C436.446 450.718 426.768 441.197 426.768 441.197L419.239 439.542L417.077 431.662Z" fill="#F7CA48"/>
<path opacity="0.5" d="M417.077 431.662C417.077 431.662 428.63 431.284 430.923 432.456C433.216 433.629 443.584 451.383 442.021 452.685C440.458 453.988 436.185 453.584 436.316 452.151C436.446 450.718 426.768 441.197 426.768 441.197L419.239 439.542L417.077 431.662Z" fill="white"/>
</g>
<path d="M417.077 431.662C417.077 431.662 428.63 431.284 430.923 432.456C433.216 433.629 443.584 451.383 442.021 452.685C440.458 453.988 436.185 453.584 436.316 452.151C436.446 450.718 426.768 441.197 426.768 441.197L419.239 439.542L417.077 431.662Z" stroke="#263238" stroke-linecap="round" stroke-linejoin="round"/>
<path d="M285.711 365.465C294.074 378.347 310.864 410.99 315.762 414.663C323.408 420.394 374.521 434.306 379.445 438.11C384.369 441.913 384.03 445.73 388.693 447.123C393.357 448.517 410.837 452.516 417.506 453.141C424.176 453.767 421.193 449.637 421.193 449.637L409.821 441.822L419.734 439.373C419.734 439.373 429.673 451.331 431.535 451.982C433.398 452.633 436.68 451.982 436.472 450.51C436.107 448.152 425.504 428.861 421.74 428.041C417.975 427.22 395.128 430.385 395.128 430.385C395.128 430.385 347.206 398.068 346.347 396.922C346.347 396.922 343.481 388.794 341.136 385.446C338.792 382.099 337.307 383.062 337.307 383.062C337.307 383.062 338.271 378.751 336.838 377.318L329.192 369.672L328.918 370.037C327.615 367.432 326.313 364.462 324.88 361.075C320.881 351.657 306.722 325.228 304.338 321.411C302.554 318.559 287.6 316.514 280.019 315.654" fill="#F7CA48"/>
<mask id="mask12_26_574" style="mask-type:luminance" maskUnits="userSpaceOnUse" x="280" y="315" width="157" height="139">
<path d="M285.711 365.465C294.074 378.347 310.864 410.99 315.762 414.663C323.408 420.394 374.521 434.306 379.445 438.11C384.369 441.913 384.03 445.73 388.693 447.123C393.357 448.517 410.837 452.516 417.506 453.141C424.176 453.767 421.193 449.637 421.193 449.637L409.821 441.822L419.734 439.373C419.734 439.373 429.673 451.331 431.535 451.982C433.398 452.633 436.68 451.982 436.472 450.51C436.107 448.152 425.504 428.861 421.74 428.041C417.975 427.22 395.128 430.385 395.128 430.385C395.128 430.385 347.206 398.068 346.347 396.922C346.347 396.922 343.481 388.794 341.136 385.446C338.792 382.099 337.307 383.062 337.307 383.062C337.307 383.062 338.271 378.751 336.838 377.318L329.192 369.672L328.918 370.037C327.615 367.432 326.313 364.462 324.88 361.075C320.881 351.657 306.722 325.228 304.338 321.411C302.554 318.559 287.6 316.514 280.019 315.654" fill="white"/>
</mask>
<g mask="url(#mask12_26_574)">
<path opacity="0.16" d="M319.005 366.285C325.258 371.834 323.174 371.834 321.78 376.706C320.386 381.578 322.822 374.973 328.723 375.325C334.623 375.677 332.891 383.297 332.188 384.691C331.484 386.084 339.482 387.817 338.088 390.93C336.694 394.043 328.723 398.563 324.216 403.083C319.709 407.603 336.004 395.789 341.553 395.45C343.246 395.333 344.64 395.554 345.812 395.528C344.583 392.043 343.003 388.691 341.097 385.524C338.7 382.177 337.268 383.141 337.268 383.141C337.268 383.141 338.231 378.829 336.799 377.396L329.152 369.75L328.879 370.115C327.576 367.51 326.274 364.54 324.841 361.153C320.842 351.735 306.683 325.306 304.299 321.49C302.515 318.637 287.561 316.592 279.98 315.732L280.67 321.763L280.84 321.893C280.84 321.893 290.205 323.626 293.332 323.977C296.458 324.329 300.274 327.091 299.923 329.188C299.571 331.285 290.557 340.637 293.332 341.341C296.106 342.044 299.232 334.398 302.358 335.44C305.485 336.482 312.714 360.736 319.005 366.285Z" fill="black"/>
</g>
<path d="M285.711 365.465C294.074 378.347 310.864 410.99 315.762 414.663C323.408 420.394 374.521 434.306 379.445 438.11C384.369 441.913 384.03 445.73 388.693 447.123C393.357 448.517 410.837 452.516 417.506 453.141C424.176 453.767 421.193 449.637 421.193 449.637L409.821 441.822L419.734 439.373C419.734 439.373 429.673 451.331 431.535 451.982C433.398 452.633 436.68 451.982 436.472 450.51C436.107 448.152 425.504 428.861 421.74 428.041C417.975 427.22 395.128 430.385 395.128 430.385C395.128 430.385 347.206 398.068 346.347 396.922C346.347 396.922 343.481 388.794 341.136 385.446C338.792 382.099 337.307 383.063 337.307 383.063C337.307 383.063 338.271 378.751 336.838 377.318L329.192 369.672L328.918 370.037C327.615 367.432 326.313 364.462 324.88 361.075C320.881 351.657 306.722 325.228 304.338 321.411C302.554 318.559 287.6 316.514 280.019 315.654" stroke="#263238" stroke-linecap="round" stroke-linejoin="round"/>
<path d="M285.842 347.789C285.49 348.961 285.19 350.133 284.956 351.332" stroke="#263238" stroke-linecap="round" stroke-linejoin="round"/>
<path d="M298.503 326.231C294.41 330.896 290.958 336.087 288.238 341.667" stroke="#263238" stroke-linecap="round" stroke-linejoin="round"/>
<path d="M317.638 400.191C321.155 394.981 326.756 388.377 332.93 386.488" stroke="#263238" stroke-linecap="round" stroke-linejoin="round"/>
<path d="M313.743 406.6C313.743 406.6 314.368 405.376 315.488 403.526" stroke="#263238" stroke-linecap="round" stroke-linejoin="round"/>
<path d="M313.743 398.368C313.743 398.368 320.139 382.372 326.534 378.256C332.93 374.14 329.27 382.372 329.27 382.372" stroke="#263238" stroke-linecap="round" stroke-linejoin="round"/>
<path d="M379.445 438.123C384.382 441.939 384.03 445.743 388.693 447.136C393.356 448.53 410.837 452.529 417.506 453.154C424.176 453.78 421.193 449.65 421.193 449.65L409.821 441.835L419.734 439.386C419.734 439.386 429.672 451.344 431.535 451.995C433.398 452.646 436.941 452.881 436.472 450.523C435.56 445.964 425.504 428.874 421.74 428.054C417.975 427.233 395.128 430.398 395.128 430.398C395.128 430.398 351.479 400.439 346.698 397.196C328.162 398.98 319.344 408.684 315.632 414.507L315.762 414.611C323.408 420.394 374.521 434.306 379.445 438.123Z" fill="white"/>
<mask id="mask13_26_574" style="mask-type:luminance" maskUnits="userSpaceOnUse" x="315" y="397" width="122" height="57">
<path d="M379.445 438.123C384.382 441.939 384.03 445.743 388.693 447.136C393.356 448.53 410.837 452.529 417.506 453.154C424.176 453.78 421.193 449.65 421.193 449.65L409.821 441.835L419.734 439.386C419.734 439.386 429.672 451.344 431.535 451.995C433.398 452.646 436.941 452.881 436.472 450.523C435.56 445.964 425.504 428.874 421.74 428.054C417.975 427.233 395.128 430.398 395.128 430.398C395.128 430.398 351.479 400.439 346.698 397.196C328.162 398.98 319.344 408.684 315.632 414.507L315.762 414.611C323.408 420.394 374.521 434.306 379.445 438.123Z" fill="white"/>
</mask>
<g mask="url(#mask13_26_574)">
<path d="M436.459 450.575C434.088 444.779 425.491 428.926 421.727 428.106C417.962 427.285 395.115 430.45 395.115 430.45C395.115 430.45 351.465 400.491 346.685 397.248C341.82 397.671 337.046 398.826 332.526 400.673C339.417 404.581 385.346 430.633 391.142 431.792C397.29 433.095 417.806 429.721 421.414 432.144C423.707 433.681 430.532 444.505 435.143 452.19C436.459 451.995 436.941 451.748 436.459 450.575Z" fill="#F7CA48"/>
<path opacity="0.5" d="M436.459 450.575C432.759 442.278 425.491 428.926 421.727 428.106C417.962 427.285 395.115 430.45 395.115 430.45C395.115 430.45 351.465 400.491 346.685 397.248C341.82 397.671 337.046 398.826 332.526 400.673C339.417 404.581 385.346 430.633 391.142 431.792C397.29 433.095 417.806 429.721 421.414 432.144C423.707 433.681 430.532 444.505 435.143 452.19C436.459 451.995 436.98 451.734 436.459 450.575Z" fill="white"/>
</g>
<path d="M379.445 438.123C384.382 441.939 384.03 445.743 388.693 447.136C393.356 448.53 410.837 452.529 417.506 453.154C424.176 453.78 421.193 449.65 421.193 449.65L409.821 441.835L419.734 439.386C419.734 439.386 429.672 451.344 431.535 451.995C433.398 452.646 436.941 452.881 436.472 450.523C435.56 445.964 425.504 428.874 421.74 428.054C417.975 427.233 395.128 430.398 395.128 430.398C395.128 430.398 351.479 400.439 346.698 397.196C328.162 398.98 319.344 408.684 315.632 414.507L315.762 414.611C323.408 420.394 374.521 434.306 379.445 438.123Z" stroke="#263238" stroke-linecap="round" stroke-linejoin="round"/>
<path d="M264.323 210.666L225.089 227.04C224.614 233.935 222.907 240.689 220.048 246.982C215.411 256.79 218.121 275.352 222.575 285.369C227.03 295.386 246.66 291.465 253.837 290.215C258.705 289.289 263.473 287.897 268.075 286.059C270.17 286.867 272.436 287.128 274.66 286.818C276.884 286.508 278.993 285.638 280.788 284.288C280.788 284.288 259.79 225.346 264.323 210.666Z" fill="white"/>
<mask id="mask14_26_574" style="mask-type:luminance" maskUnits="userSpaceOnUse" x="217" y="210" width="64" height="83">
<path d="M264.323 210.666L225.089 227.04C224.614 233.935 222.907 240.689 220.048 246.982C215.411 256.79 218.121 275.352 222.575 285.369C227.03 295.386 246.66 291.465 253.837 290.215C258.705 289.289 263.473 287.897 268.075 286.059C270.17 286.867 272.436 287.128 274.66 286.818C276.884 286.508 278.993 285.638 280.788 284.288C280.788 284.288 259.79 225.346 264.323 210.666Z" fill="white"/>
</mask>
<g mask="url(#mask14_26_574)">
<path d="M264.323 210.666L225.089 227.04C224.614 233.935 222.907 240.689 220.048 246.982C215.411 256.79 218.121 275.352 222.575 285.369C223.321 286.98 224.521 288.338 226.027 289.277V288.521C226.027 288.521 218.746 270.481 220.127 260.073C221.507 249.665 227.421 244.442 228.111 237.864C228.802 231.286 228.45 228.16 241.645 223.301C254.84 218.443 260.376 213.936 261.757 218.781C263.138 223.627 268.7 255.566 272.516 263.199C276.333 270.832 275.981 278.83 270.094 282.282C264.143 285.854 257.767 288.664 251.115 290.645L253.889 290.163C258.757 289.237 263.525 287.845 268.127 286.007C270.222 286.815 272.488 287.076 274.712 286.766C276.936 286.456 279.045 285.585 280.84 284.236C280.84 284.236 259.79 225.346 264.323 210.666Z" fill="#F7CA48"/>
<path opacity="0.5" d="M264.323 210.666L225.089 227.04C224.614 233.935 222.907 240.689 220.048 246.982C215.411 256.79 218.121 275.352 222.575 285.369C223.321 286.98 224.521 288.338 226.027 289.277V288.521C226.027 288.521 218.746 270.481 220.127 260.073C221.507 249.665 227.421 244.442 228.111 237.864C228.802 231.286 228.45 228.16 241.645 223.301C254.84 218.443 260.376 213.936 261.757 218.781C263.138 223.627 268.7 255.566 272.516 263.199C276.333 270.832 275.981 278.83 270.094 282.282C264.143 285.854 257.767 288.664 251.115 290.645L253.889 290.163C258.757 289.237 263.525 287.845 268.127 286.007C270.222 286.815 272.488 287.076 274.712 286.766C276.936 286.456 279.045 285.585 280.84 284.236C280.84 284.236 259.79 225.346 264.323 210.666Z" fill="white"/>
</g>
<path d="M264.323 210.666L225.089 227.04C224.614 233.935 222.907 240.689 220.048 246.982C215.411 256.79 218.121 275.352 222.575 285.369C227.03 295.386 246.66 291.465 253.837 290.215C258.705 289.289 263.473 287.897 268.075 286.059C270.17 286.867 272.436 287.128 274.66 286.818C276.884 286.508 278.993 285.638 280.788 284.288C280.788 284.288 259.79 225.346 264.323 210.666Z" stroke="#263238" stroke-linecap="round" stroke-linejoin="round"/>
<path d="M244.498 236.34C244.604 238.647 244.318 240.955 243.651 243.165C242.609 245.771 232.775 256.009 233.074 257.116C233.374 258.223 234.26 261.779 236.005 262.118" stroke="#263238" stroke-linecap="round" stroke-linejoin="round"/>
<path d="M255.4 245.497C256.768 242.762 261.262 245.432 261.197 251.593" stroke="#263238" stroke-linecap="round" stroke-linejoin="round"/>
<path d="M233.126 237.447C233.126 237.447 236.956 235.767 240.382 241.967" stroke="#263238" stroke-linecap="round" stroke-linejoin="round"/>
<path d="M249.956 254.524C254.381 254.747 258.588 256.512 261.848 259.513" stroke="#263238" stroke-width="0.5" stroke-linecap="round" stroke-linejoin="round"/>
<path d="M228.502 246.383C230.79 246.688 233.025 247.306 235.145 248.22" stroke="#263238" stroke-width="0.5" stroke-linecap="round" stroke-linejoin="round"/>
<path d="M244.068 230.557C243.057 230.022 241.935 229.729 240.791 229.702C239.647 229.675 238.513 229.914 237.477 230.4C233.973 232.081 231.824 233.93 232.058 231.781C232.293 229.632 236.409 227.261 237.646 226.948C238.884 226.636 244.42 225.776 244.068 230.557Z" fill="#263238"/>
<path d="M253.889 225.698C257.541 228.652 260.442 232.428 262.356 236.718C264.961 243.231 267.019 236.119 264.961 231.859C262.903 227.6 256.95 223.067 253.889 225.698Z" fill="#263238"/>
<path d="M281.361 295.425C281.361 298.46 279.641 300.922 277.531 300.922C275.421 300.922 273.715 298.46 273.715 295.425C273.715 292.39 275.421 284.666 277.531 284.666C279.641 284.666 281.361 292.39 281.361 295.425Z" fill="#F7CA48" stroke="#263238" stroke-linecap="round" stroke-linejoin="round"/>
<path d="M255.739 244.312C255.589 244.71 255.472 245.119 255.387 245.536C255.01 247.464 254.632 251.489 255.387 251.658C256.143 251.828 257.993 248.063 258.318 246.135C258.392 245.757 258.435 245.374 258.448 244.989C257.559 244.71 256.655 244.484 255.739 244.312Z" fill="#263238"/>
<path d="M233.517 237.069C233.401 237.41 233.31 237.758 233.244 238.111C232.853 240.039 232.866 244.273 233.686 244.429C234.507 244.585 235.849 240.625 236.226 238.698C236.321 238.23 236.373 237.755 236.383 237.278C235.45 237.021 234.477 236.951 233.517 237.069Z" fill="#263238"/>
<path d="M255.4 245.562L256.703 243.139C258.768 243.542 260.639 244.624 262.017 246.214" stroke="#263238" stroke-width="0.75" stroke-linecap="round" stroke-linejoin="round"/>
<path d="M233.517 237.069L234.82 235.545C234.82 235.545 235.38 235.272 238.454 236.666" stroke="#263238" stroke-width="0.75" stroke-linecap="round" stroke-linejoin="round"/>
<path d="M228.58 272.395C228.58 272.395 230.769 268.37 233.699 268.37C236.63 268.37 238.819 274.948 238.819 274.948" stroke="#263238" stroke-linecap="round" stroke-linejoin="round"/>
<path d="M134.26 445.977C131.428 445.836 128.646 445.174 126.054 444.023C125.693 443.89 125.362 443.684 125.083 443.418C124.804 443.153 124.581 442.834 124.429 442.479C124.278 442.125 124.199 441.744 124.199 441.359C124.2 440.973 124.278 440.592 124.43 440.238C124.583 439.884 124.805 439.565 125.085 439.3C125.364 439.035 125.695 438.829 126.056 438.696C126.418 438.562 126.803 438.504 127.188 438.524C127.572 438.544 127.949 438.643 128.295 438.813C130.9 439.92 134.273 440.61 135.172 440.22C136.827 438.37 139.367 427.194 136.084 421.801C135.342 420.603 134.651 420.381 134.195 420.329C132.333 420.069 129.571 421.984 128.594 422.934C128.322 423.191 128.002 423.392 127.653 423.525C127.303 423.658 126.931 423.72 126.557 423.709C126.184 423.699 125.816 423.614 125.475 423.461C125.133 423.308 124.826 423.089 124.569 422.817C124.313 422.545 124.112 422.225 123.979 421.876C123.846 421.526 123.783 421.154 123.794 420.78C123.805 420.407 123.89 420.039 124.043 419.698C124.196 419.357 124.415 419.049 124.687 418.792C125.195 418.297 129.897 414.064 134.912 414.741C136.156 414.923 137.341 415.389 138.375 416.103C139.41 416.816 140.266 417.759 140.878 418.857C145.71 426.738 142.402 441.731 138.689 444.701C137.399 445.613 135.838 446.063 134.26 445.977Z" fill="white"/>
<mask id="mask15_26_574" style="mask-type:luminance" maskUnits="userSpaceOnUse" x="123" y="414" width="21" height="32">
<path d="M134.26 445.977C131.428 445.836 128.646 445.174 126.054 444.023C125.693 443.89 125.362 443.684 125.083 443.418C124.804 443.153 124.581 442.834 124.429 442.479C124.278 442.125 124.199 441.744 124.199 441.359C124.2 440.973 124.278 440.592 124.43 440.238C124.583 439.884 124.805 439.565 125.085 439.3C125.364 439.035 125.695 438.829 126.056 438.696C126.418 438.562 126.803 438.504 127.188 438.524C127.572 438.544 127.949 438.643 128.295 438.813C130.9 439.92 134.273 440.61 135.172 440.22C136.827 438.37 139.367 427.194 136.084 421.801C135.342 420.603 134.651 420.381 134.195 420.329C132.333 420.069 129.571 421.984 128.594 422.934C128.322 423.191 128.002 423.392 127.653 423.525C127.303 423.658 126.931 423.72 126.557 423.709C126.184 423.699 125.816 423.614 125.475 423.461C125.133 423.308 124.826 423.089 124.569 422.817C124.313 422.545 124.112 422.225 123.979 421.876C123.846 421.526 123.783 421.154 123.794 420.78C123.805 420.407 123.89 420.039 124.043 419.698C124.196 419.357 124.415 419.049 124.687 418.792C125.195 418.297 129.897 414.064 134.912 414.741C136.156 414.923 137.341 415.389 138.375 416.103C139.41 416.816 140.266 417.759 140.878 418.857C145.71 426.738 142.402 441.731 138.689 444.701C137.399 445.613 135.838 446.063 134.26 445.977Z" fill="white"/>
</mask>
<g mask="url(#mask15_26_574)">
<path d="M138.077 420.942C137.735 420.132 137.201 419.42 136.519 418.865C135.838 418.311 135.031 417.933 134.169 417.763C130.913 417.242 127.852 420.512 127.513 420.876C127.202 421.251 127.009 421.711 126.961 422.196C126.912 422.681 127.009 423.169 127.24 423.599C127.752 423.496 128.226 423.252 128.607 422.895C129.584 421.984 132.346 420.069 134.208 420.29C134.664 420.29 135.355 420.564 136.097 421.762C139.38 427.103 136.84 438.331 135.185 440.181C134.286 440.571 130.926 439.881 128.308 438.774C127.985 438.638 127.641 438.563 127.292 438.552C127.315 438.909 127.428 439.255 127.619 439.557C127.81 439.86 128.074 440.11 128.386 440.285C130.033 441.165 131.85 441.68 133.713 441.796C134.777 441.847 135.818 441.482 136.618 440.78C139.067 438.526 141.229 426.998 138.077 420.942Z" fill="#F7CA48"/>
<path opacity="0.5" d="M138.077 420.942C137.735 420.132 137.201 419.42 136.519 418.865C135.838 418.311 135.031 417.933 134.169 417.763C130.913 417.242 127.852 420.512 127.513 420.876C127.202 421.251 127.009 421.711 126.961 422.196C126.912 422.681 127.009 423.169 127.24 423.599C127.752 423.496 128.226 423.252 128.607 422.895C129.584 421.984 132.346 420.069 134.208 420.29C134.664 420.29 135.355 420.564 136.097 421.762C139.38 427.103 136.84 438.331 135.185 440.181C134.286 440.571 130.926 439.881 128.308 438.774C127.985 438.638 127.641 438.563 127.292 438.552C127.315 438.909 127.428 439.255 127.619 439.557C127.81 439.86 128.074 440.11 128.386 440.285C130.033 441.165 131.85 441.68 133.713 441.796C134.777 441.847 135.818 441.482 136.618 440.78C139.067 438.526 141.229 426.998 138.077 420.942Z" fill="white"/>
</g>
<path d="M134.26 445.977C131.428 445.836 128.646 445.174 126.054 444.023C125.693 443.89 125.362 443.684 125.083 443.418C124.804 443.153 124.581 442.834 124.429 442.479C124.278 442.125 124.199 441.744 124.199 441.359C124.2 440.973 124.278 440.592 124.43 440.238C124.583 439.884 124.805 439.565 125.085 439.3C125.364 439.035 125.695 438.829 126.056 438.696C126.418 438.562 126.803 438.504 127.188 438.524C127.572 438.544 127.949 438.643 128.295 438.813C130.9 439.92 134.273 440.61 135.172 440.22C136.827 438.37 139.367 427.194 136.084 421.801C135.342 420.603 134.651 420.381 134.195 420.329C132.333 420.069 129.571 421.984 128.594 422.934C128.322 423.191 128.002 423.392 127.653 423.525C127.303 423.658 126.931 423.72 126.557 423.709C126.184 423.699 125.816 423.614 125.475 423.461C125.133 423.308 124.826 423.089 124.569 422.817C124.313 422.545 124.112 422.225 123.979 421.876C123.846 421.526 123.783 421.154 123.794 420.78C123.805 420.407 123.89 420.039 124.043 419.698C124.196 419.357 124.415 419.049 124.687 418.792C125.195 418.297 129.897 414.064 134.912 414.741C136.156 414.923 137.341 415.389 138.375 416.103C139.41 416.816 140.266 417.759 140.878 418.857C145.71 426.738 142.402 441.731 138.689 444.701C137.399 445.613 135.838 446.063 134.26 445.977Z" stroke="#263238" stroke-linecap="round" stroke-linejoin="round"/>
<path d="M129.285 412.371H97.9576V453.949H129.285V412.371Z" fill="white"/>
<mask id="mask16_26_574" style="mask-type:luminance" maskUnits="userSpaceOnUse" x="97" y="412" width="33" height="42">
<path d="M129.285 412.371H97.9576V453.949H129.285V412.371Z" fill="white"/>
</mask>
<g mask="url(#mask16_26_574)">
<path d="M110.788 412.371H97.9576V453.949H110.788V412.371Z" fill="#F7CA48"/>
<path opacity="0.5" d="M110.788 412.371H97.9576V453.949H110.788V412.371Z" fill="white"/>
</g>
<path d="M129.285 412.371H97.9576V453.949H129.285V412.371Z" stroke="#263238" stroke-linecap="round" stroke-linejoin="round"/>
<path d="M301.434 453.376H167.607L163.243 379.806C163.122 379.093 163.158 378.362 163.347 377.664C163.536 376.965 163.875 376.316 164.339 375.762C164.804 375.207 165.383 374.76 166.037 374.45C166.691 374.141 167.404 373.977 168.128 373.971H300.86C301.588 373.97 302.307 374.128 302.968 374.434C303.628 374.74 304.214 375.186 304.684 375.742C305.154 376.298 305.497 376.949 305.689 377.651C305.882 378.353 305.918 379.088 305.797 379.806L301.434 453.376Z" fill="#263238" stroke="#263238" stroke-linecap="round" stroke-linejoin="round"/>
<path d="M174.198 375.729H299.896C300.607 375.722 301.31 375.87 301.956 376.163C302.603 376.456 303.178 376.887 303.641 377.425C304.104 377.964 304.444 378.597 304.636 379.28C304.828 379.964 304.869 380.681 304.755 381.382" stroke="white" stroke-linecap="round" stroke-linejoin="round"/>
<path d="M164.22 380.223C164.325 378.992 164.89 377.845 165.802 377.013C166.715 376.18 167.908 375.721 169.144 375.729" stroke="white" stroke-linecap="round" stroke-linejoin="round"/>
<path d="M301.994 446.212H167.046V453.376H301.994V446.212Z" fill="white" stroke="#263238" stroke-linecap="round" stroke-linejoin="round"/>
<path d="M234.038 419.691C239.318 419.691 243.599 417.125 243.599 413.96C243.599 410.794 239.318 408.228 234.038 408.228C228.758 408.228 224.477 410.794 224.477 413.96C224.477 417.125 228.758 419.691 234.038 419.691Z" fill="white" stroke="#263238" stroke-linecap="round" stroke-linejoin="round"/>
<path d="M505.535 452.529H2.92139V464.734H505.535V452.529Z" fill="#263238"/>
<path d="M375.212 0H133.414C125.263 0 118.656 6.60748 118.656 14.7582V153.496C118.656 161.647 125.263 168.254 133.414 168.254H375.212C383.362 168.254 389.97 161.647 389.97 153.496V14.7582C389.97 6.60748 383.362 0 375.212 0Z" fill="#F7CA48"/>
<path d="M260.693 96.6907C282.627 93.1657 297.55 72.5276 294.025 50.5941C290.5 28.6607 269.862 13.7376 247.928 17.2626C225.995 20.7875 211.072 41.4257 214.597 63.3591C218.122 85.2926 238.76 100.216 260.693 96.6907Z" fill="#263238"/>
<path d="M254.007 64.4125L240.603 81.6196C240.147 82.3359 239.521 82.9276 238.779 83.3414C238.038 83.7552 237.206 83.9782 236.357 83.9903C235.192 84.0062 234.069 83.5614 233.231 82.7528C232.804 82.362 232.468 81.884 232.243 81.3513C232.018 80.8186 231.911 80.2437 231.928 79.6657C231.97 78.3714 232.427 77.1249 233.231 76.1097L248.51 57.2092L234.181 38.2958C233.516 37.4082 233.151 36.3312 233.139 35.2217C233.136 34.56 233.27 33.9047 233.532 33.2972C233.794 32.6897 234.179 32.1431 234.663 31.6917C235.118 31.2172 235.664 30.8398 236.268 30.5823C236.873 30.3248 237.523 30.1927 238.18 30.1938C239.022 30.2074 239.846 30.4315 240.579 30.8456C241.312 31.2597 241.929 31.8506 242.375 32.5644L255.322 49.6152L268.348 32.851C268.814 32.0689 269.465 31.4137 270.244 30.9434C271.024 30.4731 271.907 30.2022 272.816 30.1547C273.38 30.1533 273.938 30.2682 274.456 30.4923C274.974 30.7165 275.44 31.0449 275.825 31.4573C276.235 31.8438 276.563 32.31 276.787 32.8274C277.011 33.3448 277.127 33.9024 277.127 34.4662C277.114 35.4751 276.765 36.4509 276.138 37.2407L260.806 56.8576L275.616 76.3962C276.317 77.2696 276.706 78.3511 276.724 79.4703C276.728 80.1175 276.591 80.7579 276.324 81.3471C276.056 81.9364 275.664 82.4605 275.174 82.8831C274.218 83.8021 272.944 84.3156 271.618 84.3159C270.772 84.3054 269.942 84.0829 269.205 83.6687C268.468 83.2545 267.846 82.6619 267.397 81.9452L254.007 64.4125Z" fill="white"/>
<path d="M330.95 139.115H177.623C174.514 139.115 171.532 137.88 169.334 135.682C167.135 133.483 165.9 130.501 165.9 127.392C165.9 124.283 167.135 121.301 169.334 119.103C171.532 116.904 174.514 115.669 177.623 115.669H330.95C334.059 115.669 337.041 116.904 339.24 119.103C341.438 121.301 342.673 124.283 342.673 127.392C342.673 130.501 341.438 133.483 339.24 135.682C337.041 137.88 334.059 139.115 330.95 139.115Z" fill="white"/>
<path d="M198.634 131.17C198.532 131.17 198.43 131.149 198.336 131.109C198.242 131.068 198.157 131.009 198.087 130.935C198.01 130.859 197.949 130.767 197.909 130.666C197.869 130.566 197.849 130.458 197.852 130.349C197.852 130.166 197.902 129.986 197.996 129.828L199.168 128.004H196.771C196.661 128.01 196.55 127.992 196.446 127.952C196.343 127.911 196.25 127.849 196.172 127.77C196.038 127.614 195.965 127.415 195.965 127.21C195.965 127.004 196.038 126.806 196.172 126.65C196.25 126.57 196.343 126.508 196.446 126.468C196.55 126.428 196.661 126.41 196.771 126.415L199.129 126.48L198.087 124.787C197.982 124.614 197.924 124.416 197.918 124.214C197.915 124.105 197.934 123.997 197.974 123.897C198.014 123.796 198.075 123.704 198.152 123.628C198.225 123.553 198.312 123.494 198.408 123.454C198.505 123.414 198.608 123.393 198.712 123.393C198.858 123.391 199.001 123.432 199.124 123.511C199.247 123.59 199.344 123.703 199.402 123.836L200.549 125.881L201.643 123.927C201.712 123.775 201.821 123.645 201.959 123.551C202.097 123.457 202.258 123.402 202.424 123.393C202.527 123.393 202.628 123.414 202.722 123.454C202.816 123.495 202.901 123.554 202.972 123.628C203.048 123.699 203.108 123.786 203.149 123.883C203.189 123.979 203.209 124.083 203.206 124.188C203.204 124.373 203.15 124.554 203.05 124.709L201.903 126.546L204.287 126.48C204.398 126.474 204.509 126.491 204.612 126.532C204.716 126.572 204.809 126.635 204.886 126.715C205.02 126.871 205.094 127.07 205.094 127.275C205.094 127.481 205.02 127.679 204.886 127.835C204.809 127.915 204.716 127.978 204.612 128.018C204.509 128.059 204.398 128.076 204.287 128.07H201.877L202.946 129.737C203.066 129.938 203.133 130.167 203.141 130.401C203.145 130.507 203.127 130.612 203.089 130.71C203.051 130.809 202.993 130.899 202.919 130.974C202.851 131.047 202.768 131.106 202.676 131.146C202.585 131.187 202.486 131.208 202.385 131.209C202.224 131.205 202.067 131.155 201.934 131.065C201.8 130.975 201.694 130.849 201.63 130.701L200.549 128.786L199.468 130.701C199.389 130.852 199.269 130.976 199.121 131.06C198.973 131.143 198.803 131.181 198.634 131.17Z" fill="black"/>
<path d="M210.592 131.17C210.489 131.17 210.388 131.149 210.294 131.109C210.2 131.068 210.115 131.009 210.045 130.935C209.968 130.859 209.907 130.767 209.867 130.666C209.826 130.566 209.807 130.458 209.81 130.349C209.81 130.166 209.86 129.986 209.953 129.828L211.126 128.004H208.729C208.618 128.01 208.508 127.992 208.404 127.952C208.301 127.911 208.207 127.849 208.13 127.77C207.996 127.614 207.922 127.415 207.922 127.21C207.922 127.004 207.996 126.806 208.13 126.65C208.207 126.57 208.301 126.508 208.404 126.468C208.508 126.428 208.618 126.41 208.729 126.415L211.087 126.48L209.98 124.722C209.875 124.549 209.817 124.351 209.81 124.149C209.807 124.04 209.826 123.932 209.867 123.831C209.907 123.731 209.968 123.639 210.045 123.563C210.118 123.488 210.205 123.429 210.301 123.389C210.397 123.349 210.5 123.328 210.605 123.328C210.751 123.326 210.894 123.367 211.017 123.446C211.139 123.524 211.236 123.638 211.295 123.771L212.441 125.816L213.536 123.862C213.604 123.71 213.714 123.58 213.852 123.486C213.989 123.392 214.15 123.337 214.317 123.328C214.419 123.328 214.521 123.349 214.615 123.389C214.709 123.43 214.794 123.489 214.864 123.563C214.941 123.634 215.001 123.721 215.041 123.818C215.082 123.914 215.101 124.018 215.099 124.123C215.097 124.308 215.043 124.488 214.942 124.644L213.796 126.48L216.18 126.415C216.291 126.409 216.402 126.426 216.505 126.467C216.609 126.507 216.702 126.57 216.779 126.65C216.913 126.806 216.986 127.004 216.986 127.21C216.986 127.415 216.913 127.614 216.779 127.77C216.702 127.85 216.609 127.912 216.505 127.953C216.402 127.993 216.291 128.011 216.18 128.004H213.77L214.838 129.672C214.959 129.873 215.026 130.102 215.034 130.336C215.037 130.442 215.02 130.547 214.981 130.645C214.943 130.744 214.886 130.834 214.812 130.909C214.744 130.982 214.661 131.041 214.569 131.081C214.477 131.121 214.378 131.143 214.278 131.144C214.116 131.141 213.959 131.092 213.825 131.002C213.691 130.912 213.586 130.784 213.523 130.636L212.441 128.721L211.36 130.636C211.296 130.788 211.19 130.92 211.054 131.014C210.918 131.109 210.757 131.163 210.592 131.17Z" fill="black"/>
<path d="M222.549 131.17C222.447 131.17 222.346 131.149 222.252 131.109C222.158 131.068 222.073 131.009 222.002 130.935C221.925 130.859 221.865 130.767 221.824 130.666C221.784 130.566 221.765 130.458 221.768 130.349C221.768 130.166 221.817 129.986 221.911 129.828L223.083 128.004H220.687C220.576 128.01 220.465 127.992 220.362 127.952C220.259 127.911 220.165 127.849 220.088 127.77C219.954 127.614 219.88 127.415 219.88 127.21C219.88 127.004 219.954 126.806 220.088 126.65C220.165 126.57 220.259 126.508 220.362 126.468C220.465 126.428 220.576 126.41 220.687 126.415L223.044 126.48L221.937 124.722C221.833 124.549 221.774 124.351 221.768 124.149C221.765 124.04 221.784 123.932 221.824 123.831C221.865 123.731 221.925 123.639 222.002 123.563C222.075 123.488 222.162 123.429 222.259 123.389C222.355 123.349 222.458 123.328 222.562 123.328C222.708 123.326 222.852 123.367 222.974 123.446C223.097 123.524 223.194 123.638 223.253 123.771L224.399 125.816L225.493 123.862C225.562 123.71 225.671 123.58 225.809 123.486C225.947 123.392 226.108 123.337 226.275 123.328C226.377 123.328 226.478 123.349 226.572 123.389C226.666 123.43 226.751 123.489 226.822 123.563C226.898 123.634 226.959 123.721 226.999 123.818C227.039 123.914 227.059 124.018 227.056 124.123C227.055 124.308 227 124.488 226.9 124.644L225.754 126.48L228.137 126.415C228.248 126.409 228.359 126.426 228.463 126.467C228.566 126.507 228.66 126.57 228.737 126.65C228.871 126.806 228.944 127.004 228.944 127.21C228.944 127.415 228.871 127.614 228.737 127.77C228.66 127.85 228.566 127.912 228.463 127.953C228.359 127.993 228.248 128.011 228.137 128.004H225.728L226.796 129.672C226.916 129.873 226.984 130.102 226.991 130.336C226.995 130.442 226.977 130.547 226.939 130.645C226.901 130.744 226.843 130.834 226.77 130.909C226.701 130.982 226.618 131.041 226.527 131.081C226.435 131.121 226.336 131.143 226.236 131.144C226.074 131.141 225.917 131.092 225.782 131.002C225.648 130.912 225.543 130.784 225.48 130.636L224.399 128.721L223.318 130.636C223.254 130.788 223.147 130.92 223.011 131.014C222.875 131.109 222.715 131.163 222.549 131.17Z" fill="black"/>
<path d="M234.559 131.17C234.457 131.17 234.356 131.149 234.262 131.109C234.168 131.068 234.083 131.009 234.012 130.935C233.935 130.859 233.874 130.767 233.834 130.666C233.794 130.566 233.775 130.458 233.778 130.349C233.777 130.166 233.827 129.986 233.921 129.828L235.093 128.004H232.696C232.586 128.01 232.475 127.992 232.372 127.952C232.268 127.911 232.175 127.849 232.097 127.77C231.963 127.614 231.89 127.415 231.89 127.21C231.89 127.004 231.963 126.806 232.097 126.65C232.175 126.57 232.268 126.508 232.372 126.468C232.475 126.428 232.586 126.41 232.696 126.415L235.054 126.48L233.947 124.722C233.842 124.549 233.784 124.351 233.778 124.149C233.775 124.04 233.794 123.932 233.834 123.831C233.874 123.731 233.935 123.639 234.012 123.563C234.085 123.488 234.172 123.429 234.268 123.389C234.365 123.349 234.468 123.328 234.572 123.328C234.718 123.326 234.861 123.367 234.984 123.446C235.107 123.524 235.204 123.638 235.263 123.771L236.409 125.816L237.503 123.862C237.572 123.71 237.681 123.58 237.819 123.486C237.957 123.392 238.118 123.337 238.285 123.328C238.387 123.328 238.488 123.349 238.582 123.389C238.676 123.43 238.761 123.489 238.832 123.563C238.908 123.634 238.968 123.721 239.009 123.818C239.049 123.914 239.069 124.018 239.066 124.123C239.064 124.308 239.01 124.488 238.91 124.644L237.764 126.48L240.147 126.415C240.258 126.409 240.369 126.426 240.473 126.467C240.576 126.507 240.669 126.57 240.746 126.65C240.88 126.806 240.954 127.004 240.954 127.21C240.954 127.415 240.88 127.614 240.746 127.77C240.669 127.85 240.576 127.912 240.473 127.953C240.369 127.993 240.258 128.011 240.147 128.004H237.737L238.806 129.672C238.926 129.873 238.993 130.102 239.001 130.336C239.005 130.442 238.987 130.547 238.949 130.645C238.911 130.744 238.853 130.834 238.78 130.909C238.711 130.982 238.628 131.041 238.536 131.081C238.445 131.121 238.346 131.143 238.245 131.144C238.084 131.14 237.927 131.09 237.794 131C237.66 130.91 237.554 130.784 237.49 130.636L236.409 128.721L235.328 130.636C235.263 130.788 235.157 130.92 235.021 131.014C234.885 131.109 234.725 131.163 234.559 131.17Z" fill="black"/>
<path d="M246.465 131.17C246.362 131.17 246.261 131.149 246.167 131.109C246.073 131.068 245.988 131.009 245.918 130.935C245.841 130.859 245.78 130.767 245.74 130.666C245.699 130.566 245.68 130.458 245.683 130.349C245.689 130.167 245.738 129.988 245.827 129.828L246.999 128.004H244.602C244.491 128.01 244.381 127.992 244.277 127.952C244.174 127.911 244.08 127.849 244.003 127.77C243.869 127.614 243.795 127.415 243.795 127.21C243.795 127.004 243.869 126.806 244.003 126.65C244.08 126.57 244.174 126.508 244.277 126.468C244.381 126.428 244.491 126.41 244.602 126.415L246.96 126.48L245.853 124.722C245.748 124.549 245.69 124.351 245.683 124.149C245.68 124.04 245.699 123.932 245.74 123.831C245.78 123.731 245.841 123.639 245.918 123.563C245.991 123.488 246.078 123.429 246.174 123.389C246.27 123.349 246.374 123.328 246.478 123.328C246.624 123.326 246.767 123.367 246.89 123.446C247.012 123.524 247.109 123.638 247.168 123.771L248.314 125.816L249.409 123.862C249.478 123.71 249.587 123.58 249.725 123.486C249.862 123.392 250.023 123.337 250.19 123.328C250.293 123.327 250.394 123.347 250.489 123.387C250.583 123.428 250.668 123.487 250.737 123.563C250.814 123.634 250.874 123.721 250.914 123.818C250.955 123.914 250.974 124.018 250.972 124.123C250.97 124.308 250.916 124.488 250.815 124.644L249.669 126.48L252.053 126.415C252.164 126.409 252.275 126.426 252.378 126.467C252.482 126.507 252.575 126.57 252.652 126.65C252.786 126.806 252.86 127.004 252.86 127.21C252.86 127.415 252.786 127.614 252.652 127.77C252.575 127.85 252.482 127.912 252.378 127.953C252.275 127.993 252.164 128.011 252.053 128.004H249.643L250.711 129.672C250.832 129.873 250.899 130.102 250.907 130.336C250.91 130.442 250.893 130.547 250.855 130.645C250.816 130.744 250.759 130.834 250.685 130.909C250.617 130.982 250.534 131.041 250.442 131.081C250.35 131.121 250.251 131.143 250.151 131.144C249.99 131.14 249.833 131.09 249.699 131C249.565 130.91 249.46 130.784 249.396 130.636L248.314 128.721L247.233 130.636C247.169 130.788 247.063 130.92 246.927 131.014C246.791 131.109 246.63 131.163 246.465 131.17Z" fill="black"/>
<path d="M258.422 131.17C258.32 131.17 258.219 131.149 258.125 131.109C258.031 131.068 257.946 131.009 257.875 130.935C257.798 130.859 257.738 130.767 257.697 130.666C257.657 130.566 257.638 130.458 257.641 130.349C257.647 130.167 257.696 129.988 257.784 129.828L258.956 128.004H256.573C256.46 128.011 256.347 127.994 256.241 127.953C256.136 127.913 256.04 127.85 255.961 127.77C255.827 127.614 255.753 127.415 255.753 127.21C255.753 127.004 255.827 126.806 255.961 126.65C256.04 126.569 256.136 126.507 256.241 126.466C256.347 126.426 256.46 126.409 256.573 126.415L258.917 126.48L257.81 124.722C257.706 124.549 257.647 124.351 257.641 124.149C257.638 124.04 257.657 123.932 257.697 123.831C257.738 123.731 257.798 123.639 257.875 123.563C257.948 123.488 258.035 123.429 258.132 123.389C258.228 123.349 258.331 123.328 258.435 123.328C258.581 123.326 258.725 123.367 258.847 123.446C258.97 123.524 259.067 123.638 259.126 123.771L260.272 125.816L261.366 123.862C261.435 123.71 261.544 123.58 261.682 123.486C261.82 123.392 261.981 123.337 262.148 123.328C262.25 123.327 262.352 123.347 262.446 123.387C262.541 123.428 262.625 123.487 262.695 123.563C262.771 123.634 262.832 123.721 262.872 123.818C262.912 123.914 262.932 124.018 262.929 124.123C262.928 124.308 262.873 124.488 262.773 124.644L261.627 126.48L264.01 126.415C264.121 126.409 264.232 126.426 264.336 126.467C264.439 126.507 264.533 126.57 264.61 126.65C264.744 126.806 264.817 127.004 264.817 127.21C264.817 127.415 264.744 127.614 264.61 127.77C264.533 127.85 264.439 127.912 264.336 127.953C264.232 127.993 264.121 128.011 264.01 128.004H261.601L262.669 129.672C262.789 129.873 262.857 130.102 262.864 130.336C262.868 130.442 262.85 130.547 262.812 130.645C262.774 130.744 262.716 130.834 262.643 130.909C262.574 130.982 262.492 131.041 262.4 131.081C262.308 131.121 262.209 131.143 262.109 131.144C261.947 131.14 261.791 131.09 261.657 131C261.523 130.91 261.418 130.784 261.353 130.636L260.272 128.721L259.191 130.636C259.127 130.788 259.02 130.92 258.884 131.014C258.748 131.109 258.588 131.163 258.422 131.17Z" fill="black"/>
<path d="M270.38 131.17C270.278 131.17 270.176 131.149 270.082 131.109C269.988 131.068 269.904 131.009 269.833 130.935C269.756 130.859 269.695 130.767 269.655 130.666C269.615 130.566 269.595 130.458 269.598 130.349C269.598 130.166 269.648 129.986 269.742 129.828L270.914 128.004H268.517C268.407 128.01 268.296 127.992 268.193 127.952C268.089 127.911 267.996 127.849 267.918 127.77C267.784 127.614 267.711 127.415 267.711 127.21C267.711 127.004 267.784 126.806 267.918 126.65C267.996 126.57 268.089 126.508 268.193 126.468C268.296 126.428 268.407 126.41 268.517 126.415L270.875 126.48L269.729 124.787C269.624 124.614 269.566 124.416 269.559 124.214C269.556 124.105 269.576 123.997 269.616 123.897C269.656 123.796 269.717 123.704 269.794 123.628C269.867 123.553 269.954 123.494 270.05 123.454C270.146 123.414 270.25 123.393 270.354 123.393C270.5 123.391 270.643 123.432 270.766 123.511C270.889 123.59 270.986 123.703 271.044 123.836L272.191 125.881L273.285 123.927C273.354 123.775 273.463 123.645 273.601 123.551C273.739 123.457 273.9 123.402 274.066 123.393C274.169 123.392 274.271 123.412 274.365 123.452C274.459 123.493 274.544 123.552 274.613 123.628C274.69 123.699 274.75 123.786 274.791 123.883C274.831 123.979 274.85 124.083 274.848 124.188C274.846 124.373 274.792 124.554 274.692 124.709L273.545 126.546L275.929 126.48C276.04 126.474 276.151 126.491 276.254 126.532C276.358 126.572 276.451 126.635 276.528 126.715C276.662 126.871 276.736 127.07 276.736 127.275C276.736 127.481 276.662 127.679 276.528 127.835C276.451 127.915 276.358 127.978 276.254 128.018C276.151 128.059 276.04 128.076 275.929 128.07H273.519L274.587 129.737C274.708 129.938 274.775 130.167 274.783 130.401C274.787 130.507 274.769 130.612 274.731 130.71C274.693 130.809 274.635 130.899 274.561 130.974C274.493 131.047 274.41 131.106 274.318 131.146C274.226 131.187 274.127 131.208 274.027 131.209C273.866 131.205 273.709 131.155 273.575 131.065C273.442 130.975 273.336 130.849 273.272 130.701L272.191 128.786L271.109 130.701C271.039 130.836 270.935 130.95 270.807 131.032C270.679 131.115 270.532 131.162 270.38 131.17Z" fill="black"/>
<path d="M282.338 131.17C282.235 131.17 282.134 131.149 282.04 131.109C281.946 131.068 281.861 131.009 281.791 130.935C281.714 130.859 281.653 130.767 281.613 130.666C281.572 130.566 281.553 130.458 281.556 130.349C281.562 130.167 281.611 129.988 281.699 129.828L282.872 128.004H280.488C280.377 128.013 280.265 127.996 280.162 127.956C280.058 127.915 279.965 127.852 279.889 127.77C279.747 127.618 279.668 127.418 279.668 127.21C279.668 127.002 279.747 126.802 279.889 126.65C279.965 126.568 280.058 126.505 280.162 126.464C280.265 126.424 280.377 126.407 280.488 126.415L282.833 126.48L281.725 124.722C281.621 124.549 281.563 124.351 281.556 124.149C281.553 124.042 281.571 123.936 281.609 123.837C281.647 123.737 281.705 123.647 281.779 123.57C281.854 123.493 281.942 123.433 282.041 123.391C282.139 123.35 282.244 123.328 282.351 123.328C282.497 123.326 282.64 123.367 282.763 123.446C282.885 123.524 282.982 123.638 283.041 123.771L284.187 125.816L285.282 123.862C285.35 123.71 285.46 123.58 285.598 123.486C285.735 123.392 285.896 123.337 286.063 123.328C286.166 123.325 286.268 123.344 286.363 123.385C286.457 123.425 286.542 123.486 286.61 123.563C286.686 123.634 286.747 123.721 286.787 123.818C286.828 123.914 286.847 124.018 286.845 124.123C286.843 124.308 286.789 124.488 286.688 124.644L285.542 126.48L287.926 126.415C288.037 126.409 288.148 126.426 288.251 126.467C288.355 126.507 288.448 126.57 288.525 126.65C288.659 126.806 288.732 127.004 288.732 127.21C288.732 127.415 288.659 127.614 288.525 127.77C288.448 127.85 288.355 127.912 288.251 127.953C288.148 127.993 288.037 128.011 287.926 128.004H285.516L286.584 129.672C286.705 129.873 286.772 130.102 286.779 130.336C286.783 130.439 286.766 130.541 286.73 130.637C286.694 130.733 286.639 130.821 286.569 130.896C286.499 130.971 286.415 131.032 286.321 131.074C286.228 131.117 286.127 131.14 286.024 131.144C285.863 131.14 285.706 131.09 285.572 131C285.438 130.91 285.333 130.783 285.268 130.636L284.187 128.721L283.106 130.636C283.042 130.788 282.936 130.92 282.8 131.014C282.664 131.109 282.503 131.163 282.338 131.17Z" fill="black"/>
<path d="M294.295 131.17C294.193 131.17 294.092 131.149 293.998 131.109C293.904 131.068 293.819 131.009 293.748 130.935C293.671 130.859 293.611 130.767 293.57 130.666C293.53 130.566 293.511 130.458 293.514 130.349C293.52 130.167 293.569 129.988 293.657 129.828L294.83 128.004H292.433C292.324 128.011 292.215 127.993 292.114 127.953C292.012 127.912 291.921 127.85 291.847 127.77C291.705 127.618 291.626 127.418 291.626 127.21C291.626 127.002 291.705 126.802 291.847 126.65C291.921 126.57 292.012 126.508 292.114 126.467C292.215 126.427 292.324 126.409 292.433 126.415L294.79 126.48L293.683 124.722C293.579 124.549 293.52 124.351 293.514 124.149C293.51 124.042 293.528 123.936 293.567 123.837C293.605 123.737 293.663 123.647 293.737 123.57C293.811 123.493 293.9 123.433 293.998 123.391C294.096 123.35 294.202 123.328 294.308 123.328C294.454 123.326 294.598 123.367 294.72 123.446C294.843 123.524 294.94 123.638 294.999 123.771L296.145 125.816L297.239 123.862C297.308 123.71 297.418 123.58 297.555 123.486C297.693 123.392 297.854 123.337 298.021 123.328C298.124 123.325 298.226 123.344 298.32 123.385C298.415 123.425 298.499 123.486 298.568 123.563C298.644 123.634 298.705 123.721 298.745 123.818C298.785 123.914 298.805 124.018 298.802 124.123C298.801 124.308 298.746 124.488 298.646 124.644L297.5 126.48L299.884 126.415C299.994 126.409 300.105 126.426 300.209 126.467C300.312 126.507 300.406 126.57 300.483 126.65C300.617 126.806 300.69 127.004 300.69 127.21C300.69 127.415 300.617 127.614 300.483 127.77C300.406 127.85 300.312 127.912 300.209 127.953C300.105 127.993 299.994 128.011 299.884 128.004H297.474L298.542 129.672C298.662 129.873 298.73 130.102 298.737 130.336C298.741 130.439 298.724 130.541 298.688 130.637C298.652 130.733 298.597 130.821 298.527 130.896C298.457 130.971 298.372 131.032 298.279 131.074C298.185 131.117 298.084 131.14 297.982 131.144C297.821 131.14 297.664 131.09 297.53 131C297.396 130.91 297.291 130.783 297.226 130.636L296.145 128.721L295.064 130.636C295 130.788 294.893 130.92 294.757 131.014C294.621 131.109 294.461 131.163 294.295 131.17Z" fill="black"/>
<path d="M306.201 131.17C306.099 131.17 305.997 131.149 305.903 131.109C305.809 131.068 305.724 131.009 305.654 130.935C305.577 130.859 305.516 130.767 305.476 130.666C305.436 130.566 305.416 130.458 305.419 130.349C305.425 130.167 305.475 129.988 305.563 129.828L306.735 128.004H304.338C304.229 128.011 304.12 127.993 304.019 127.953C303.918 127.912 303.827 127.85 303.752 127.77C303.61 127.618 303.531 127.418 303.531 127.21C303.531 127.002 303.61 126.802 303.752 126.65C303.827 126.57 303.918 126.508 304.019 126.467C304.12 126.427 304.229 126.409 304.338 126.415L306.696 126.48L305.589 124.722C305.484 124.549 305.426 124.351 305.419 124.149C305.416 124.04 305.436 123.932 305.476 123.831C305.516 123.731 305.577 123.639 305.654 123.563C305.727 123.488 305.814 123.429 305.91 123.389C306.006 123.349 306.11 123.328 306.214 123.328C306.36 123.326 306.503 123.367 306.626 123.446C306.749 123.524 306.846 123.638 306.904 123.771L308.051 125.816L309.145 123.862C309.214 123.71 309.323 123.58 309.461 123.486C309.599 123.392 309.76 123.337 309.926 123.328C310.029 123.325 310.131 123.344 310.226 123.385C310.32 123.425 310.405 123.486 310.473 123.563C310.55 123.634 310.61 123.721 310.651 123.818C310.691 123.914 310.71 124.018 310.708 124.123C310.706 124.308 310.652 124.488 310.552 124.644L309.405 126.48L311.789 126.415C311.9 126.409 312.011 126.426 312.114 126.467C312.218 126.507 312.311 126.57 312.388 126.65C312.522 126.806 312.596 127.004 312.596 127.21C312.596 127.415 312.522 127.614 312.388 127.77C312.311 127.85 312.218 127.912 312.114 127.953C312.011 127.993 311.9 128.011 311.789 128.004H309.379L310.447 129.672C310.568 129.873 310.635 130.102 310.643 130.336C310.646 130.442 310.629 130.547 310.591 130.645C310.553 130.744 310.495 130.834 310.421 130.909C310.353 130.982 310.27 131.041 310.178 131.081C310.086 131.121 309.987 131.143 309.887 131.144C309.726 131.14 309.569 131.09 309.435 131C309.302 130.91 309.196 130.783 309.132 130.636L308.051 128.721L306.969 130.636C306.905 130.788 306.799 130.92 306.663 131.014C306.527 131.109 306.367 131.163 306.201 131.17Z" fill="black"/>
<path d="M347.18 159.983H363.111" stroke="white" stroke-width="3" stroke-linecap="round" stroke-linejoin="round"/>
<path d="M126.224 42.6855V148.494C126.224 151.558 127.441 154.497 129.608 156.664C131.774 158.831 134.713 160.048 137.778 160.048H332.057" stroke="white" stroke-width="3" stroke-linecap="round" stroke-linejoin="round"/>
<path d="M126.224 14.628V30.4934" stroke="white" stroke-width="3" stroke-linecap="round" stroke-linejoin="round"/>
</svg>
